<?xml version="1.0" encoding="UTF-8" standalone="no"?>
<!DOCTYPE svg PUBLIC "-//W3C//DTD SVG 1.1//EN"
 "http://www.w3.org/Graphics/SVG/1.1/DTD/svg11.dtd">
<!-- Generated by graphviz version 2.43.0 (0)
 -->
<!-- Title: ConceptHierarchy Pages: 1 -->
<svg width="929pt" height="473pt"
 viewBox="0.00 0.00 929.00 473.00" xmlns="http://www.w3.org/2000/svg" xmlns:xlink="http://www.w3.org/1999/xlink">
<g id="graph0" class="graph" transform="scale(1 1) rotate(0) translate(4 469)">
<title>ConceptHierarchy</title>
<polygon fill="white" stroke="transparent" points="-4,4 -4,-469 925,-469 925,4 -4,4"/>
<!-- basic_edge_c -->
<g id="node1" class="node">
<title>basic_edge_c</title>
<path fill="#cce5ff" stroke="black" d="M671,-465C671,-465 552,-465 552,-465 546,-465 540,-459 540,-453 540,-453 540,-433 540,-433 540,-427 546,-421 552,-421 552,-421 671,-421 671,-421 677,-421 683,-427 683,-433 683,-433 683,-453 683,-453 683,-459 677,-465 671,-465"/>
<text text-anchor="middle" x="611.5" y="-452.2" font-family="Helvetica,sans-Serif" font-size="11.00">basic_edge&lt;G,E&gt;</text>
<text text-anchor="middle" x="611.5" y="-440.2" font-family="Helvetica,sans-Serif" font-size="11.00">source_id · target_id</text>
<text text-anchor="middle" x="611.5" y="-428.2" font-family="Helvetica,sans-Serif" font-size="11.00">(shared with edge_list)</text>
</g>
<!-- edge_c -->
<g id="node2" class="node">
<title>edge_c</title>
<path fill="#cce5ff" stroke="black" d="M655,-384C655,-384 568,-384 568,-384 562,-384 556,-378 556,-372 556,-372 556,-352 556,-352 556,-346 562,-340 568,-340 568,-340 655,-340 655,-340 661,-340 667,-346 667,-352 667,-352 667,-372 667,-372 667,-378 661,-384 655,-384"/>
<text text-anchor="middle" x="611.5" y="-371.2" font-family="Helvetica,sans-Serif" font-size="11.00">edge&lt;G,E&gt;</text>
<text text-anchor="middle" x="611.5" y="-359.2" font-family="Helvetica,sans-Serif" font-size="11.00">basic_edge</text>
<text text-anchor="middle" x="611.5" y="-347.2" font-family="Helvetica,sans-Serif" font-size="11.00">+ source · target</text>
</g>
<!-- basic_edge_c&#45;&gt;edge_c -->
<g id="edge1" class="edge">
<title>basic_edge_c&#45;&gt;edge_c</title>
<path fill="none" stroke="black" d="M611.5,-420.83C611.5,-412.68 611.5,-403.2 611.5,-394.3"/>
<polygon fill="black" stroke="black" points="615,-394.23 611.5,-384.23 608,-394.23 615,-394.23"/>
</g>
<!-- out_edge_range -->
<g id="node5" class="node">
<title>out_edge_range</title>
<path fill="#d4edda" stroke="black" d="M614.5,-299C614.5,-299 464.5,-299 464.5,-299 458.5,-299 452.5,-293 452.5,-287 452.5,-287 452.5,-275 452.5,-275 452.5,-269 458.5,-263 464.5,-263 464.5,-263 614.5,-263 614.5,-263 620.5,-263 626.5,-269 626.5,-275 626.5,-275 626.5,-287 626.5,-287 626.5,-293 620.5,-299 614.5,-299"/>
<text text-anchor="middle" x="539.5" y="-284.2" font-family="Helvetica,sans-Serif" font-size="11.00">out_edge_range&lt;R,G&gt;</text>
<text text-anchor="middle" x="539.5" y="-272.2" font-family="Helvetica,sans-Serif" font-size="11.00">forward_range of edge&lt;G,·&gt;</text>
</g>
<!-- edge_c&#45;&gt;out_edge_range -->
<g id="edge2" class="edge">
<title>edge_c&#45;&gt;out_edge_range</title>
<path fill="none" stroke="black" d="M592.21,-339.83C582.89,-329.61 571.65,-317.28 561.95,-306.63"/>
<polygon fill="black" stroke="black" points="564.53,-304.27 555.21,-299.23 559.36,-308.98 564.53,-304.27"/>
</g>
<!-- in_edge_range -->
<g id="node6" class="node">
<title>in_edge_range</title>
<path fill="#d4edda" stroke="black" d="M806.5,-299C806.5,-299 656.5,-299 656.5,-299 650.5,-299 644.5,-293 644.5,-287 644.5,-287 644.5,-275 644.5,-275 644.5,-269 650.5,-263 656.5,-263 656.5,-263 806.5,-263 806.5,-263 812.5,-263 818.5,-269 818.5,-275 818.5,-275 818.5,-287 818.5,-287 818.5,-293 812.5,-299 806.5,-299"/>
<text text-anchor="middle" x="731.5" y="-284.2" font-family="Helvetica,sans-Serif" font-size="11.00">in_edge_range&lt;R,G&gt;</text>
<text text-anchor="middle" x="731.5" y="-272.2" font-family="Helvetica,sans-Serif" font-size="11.00">forward_range of edge&lt;G,·&gt;</text>
</g>
<!-- edge_c&#45;&gt;in_edge_range -->
<g id="edge3" class="edge">
<title>edge_c&#45;&gt;in_edge_range</title>
<path fill="none" stroke="black" d="M643.66,-339.83C660.09,-329.01 680.11,-315.83 696.88,-304.79"/>
<polygon fill="black" stroke="black" points="698.89,-307.66 705.32,-299.23 695.04,-301.81 698.89,-307.66"/>
</g>
<!-- vertex_c -->
<g id="node3" class="node">
<title>vertex_c</title>
<path fill="#cce5ff" stroke="black" d="M403.5,-465C403.5,-465 287.5,-465 287.5,-465 281.5,-465 275.5,-459 275.5,-453 275.5,-453 275.5,-433 275.5,-433 275.5,-427 281.5,-421 287.5,-421 287.5,-421 403.5,-421 403.5,-421 409.5,-421 415.5,-427 415.5,-433 415.5,-433 415.5,-453 415.5,-453 415.5,-459 409.5,-465 403.5,-465"/>
<text text-anchor="middle" x="345.5" y="-452.2" font-family="Helvetica,sans-Serif" font-size="11.00">vertex&lt;G,V&gt;</text>
<text text-anchor="middle" x="345.5" y="-440.2" font-family="Helvetica,sans-Serif" font-size="11.00">vertex_descriptor</text>
<text text-anchor="middle" x="345.5" y="-428.2" font-family="Helvetica,sans-Serif" font-size="11.00">vertex_id · find_vertex</text>
</g>
<!-- vertex_range -->
<g id="node7" class="node">
<title>vertex_range</title>
<path fill="#d4edda" stroke="black" d="M422,-303C422,-303 269,-303 269,-303 263,-303 257,-297 257,-291 257,-291 257,-271 257,-271 257,-265 263,-259 269,-259 269,-259 422,-259 422,-259 428,-259 434,-265 434,-271 434,-271 434,-291 434,-291 434,-297 428,-303 422,-303"/>
<text text-anchor="middle" x="345.5" y="-290.2" font-family="Helvetica,sans-Serif" font-size="11.00">vertex_range&lt;R,G&gt;</text>
<text text-anchor="middle" x="345.5" y="-278.2" font-family="Helvetica,sans-Serif" font-size="11.00">forward_range + sized_range</text>
<text text-anchor="middle" x="345.5" y="-266.2" font-family="Helvetica,sans-Serif" font-size="11.00">of vertex&lt;G,·&gt;</text>
</g>
<!-- vertex_c&#45;&gt;vertex_range -->
<g id="edge4" class="edge">
<title>vertex_c&#45;&gt;vertex_range</title>
<path fill="none" stroke="black" d="M345.5,-420.75C345.5,-393.18 345.5,-344.86 345.5,-313.15"/>
<polygon fill="black" stroke="black" points="349,-313.08 345.5,-303.08 342,-313.08 349,-313.08"/>
</g>
<!-- hashable_vertex_id -->
<g id="node4" class="node">
<title>hashable_vertex_id</title>
<path fill="#cce5ff" stroke="black" d="M909,-461C909,-461 784,-461 784,-461 778,-461 772,-455 772,-449 772,-449 772,-437 772,-437 772,-431 778,-425 784,-425 784,-425 909,-425 909,-425 915,-425 921,-431 921,-437 921,-437 921,-449 921,-449 921,-455 915,-461 909,-461"/>
<text text-anchor="middle" x="846.5" y="-446.2" font-family="Helvetica,sans-Serif" font-size="11.00">hashable_vertex_id&lt;G&gt;</text>
<text text-anchor="middle" x="846.5" y="-434.2" font-family="Helvetica,sans-Serif" font-size="11.00">hash(vertex_id_t&lt;G&gt;)</text>
</g>
<!-- mapped_vertex_range -->
<g id="node9" class="node">
<title>mapped_vertex_range</title>
<path fill="#fff3cd" stroke="black" d="M800,-149C800,-149 659,-149 659,-149 653,-149 647,-143 647,-137 647,-137 647,-105 647,-105 647,-99 653,-93 659,-93 659,-93 800,-93 800,-93 806,-93 812,-99 812,-105 812,-105 812,-137 812,-137 812,-143 806,-149 800,-149"/>
<text text-anchor="middle" x="729.5" y="-136.2" font-family="Helvetica,sans-Serif" font-size="11.00">mapped_vertex_range&lt;G&gt;</text>
<text text-anchor="middle" x="729.5" y="-124.2" font-family="Helvetica,sans-Serif" font-size="11.00">!index_vertex_range</text>
<text text-anchor="middle" x="729.5" y="-112.2" font-family="Helvetica,sans-Serif" font-size="11.00">hashable_vertex_id</text>
<text text-anchor="middle" x="729.5" y="-100.2" font-family="Helvetica,sans-Serif" font-size="11.00">find_vertex</text>
</g>
<!-- hashable_vertex_id&#45;&gt;mapped_vertex_range -->
<g id="edge7" class="edge">
<title>hashable_vertex_id&#45;&gt;mapped_vertex_range</title>
<path fill="none" stroke="black" d="M846.5,-424.74C846.5,-408.74 846.5,-384.26 846.5,-363 846.5,-363 846.5,-363 846.5,-203 846.5,-182.3 833.97,-166.47 817.1,-154.55"/>
<polygon fill="black" stroke="black" points="818.81,-151.48 808.51,-149 815.02,-157.37 818.81,-151.48"/>
</g>
<!-- adjacency_list -->
<g id="node10" class="node">
<title>adjacency_list</title>
<path fill="#f8d7da" stroke="black" d="M475,-222C475,-222 306,-222 306,-222 300,-222 294,-216 294,-210 294,-210 294,-198 294,-198 294,-192 300,-186 306,-186 306,-186 475,-186 475,-186 481,-186 487,-192 487,-198 487,-198 487,-210 487,-210 487,-216 481,-222 475,-222"/>
<text text-anchor="middle" x="390.5" y="-207.2" font-family="Helvetica,sans-Serif" font-size="11.00">adjacency_list&lt;G&gt;</text>
<text text-anchor="middle" x="390.5" y="-195.2" font-family="Helvetica,sans-Serif" font-size="11.00">vertex_range + out_edge_range</text>
</g>
<!-- out_edge_range&#45;&gt;adjacency_list -->
<g id="edge8" class="edge">
<title>out_edge_range&#45;&gt;adjacency_list</title>
<path fill="none" stroke="black" d="M505.69,-262.98C484.33,-252.23 456.54,-238.24 433.61,-226.7"/>
<polygon fill="black" stroke="black" points="434.94,-223.45 424.43,-222.08 431.79,-229.7 434.94,-223.45"/>
</g>
<!-- bidirectional_adjacency_list -->
<g id="node12" class="node">
<title>bidirectional_adjacency_list</title>
<path fill="#f8d7da" stroke="black" d="M578,-143C578,-143 409,-143 409,-143 403,-143 397,-137 397,-131 397,-131 397,-111 397,-111 397,-105 403,-99 409,-99 409,-99 578,-99 578,-99 584,-99 590,-105 590,-111 590,-111 590,-131 590,-131 590,-137 584,-143 578,-143"/>
<text text-anchor="middle" x="493.5" y="-130.2" font-family="Helvetica,sans-Serif" font-size="11.00">bidirectional_adjacency_list&lt;G&gt;</text>
<text text-anchor="middle" x="493.5" y="-118.2" font-family="Helvetica,sans-Serif" font-size="11.00">adjacency_list</text>
<text text-anchor="middle" x="493.5" y="-106.2" font-family="Helvetica,sans-Serif" font-size="11.00">+ in_edge_range</text>
</g>
<!-- in_edge_range&#45;&gt;bidirectional_adjacency_list -->
<g id="edge12" class="edge">
<title>in_edge_range&#45;&gt;bidirectional_adjacency_list</title>
<path fill="none" stroke="black" d="M741.28,-262.81C751.48,-242.35 763.76,-208.17 746.5,-186 736.95,-173.74 664.96,-156.23 600.21,-142.63"/>
<polygon fill="black" stroke="black" points="600.81,-139.18 590.3,-140.57 599.38,-146.03 600.81,-139.18"/>
</g>
<!-- index_vertex_range -->
<g id="node8" class="node">
<title>index_vertex_range</title>
<path fill="#fff3cd" stroke="black" d="M139,-143C139,-143 12,-143 12,-143 6,-143 0,-137 0,-131 0,-131 0,-111 0,-111 0,-105 6,-99 12,-99 12,-99 139,-99 139,-99 145,-99 151,-105 151,-111 151,-111 151,-131 151,-131 151,-137 145,-143 139,-143"/>
<text text-anchor="middle" x="75.5" y="-130.2" font-family="Helvetica,sans-Serif" font-size="11.00">index_vertex_range&lt;G&gt;</text>
<text text-anchor="middle" x="75.5" y="-118.2" font-family="Helvetica,sans-Serif" font-size="11.00">integral vid</text>
<text text-anchor="middle" x="75.5" y="-106.2" font-family="Helvetica,sans-Serif" font-size="11.00">integral storage_type</text>
</g>
<!-- vertex_range&#45;&gt;index_vertex_range -->
<g id="edge5" class="edge">
<title>vertex_range&#45;&gt;index_vertex_range</title>
<path fill="none" stroke="black" d="M309.37,-258.86C260.47,-230.24 173.25,-179.2 120.26,-148.19"/>
<polygon fill="black" stroke="black" points="121.82,-145.05 111.42,-143.02 118.28,-151.09 121.82,-145.05"/>
</g>
<!-- vertex_range&#45;&gt;mapped_vertex_range -->
<g id="edge6" class="edge">
<title>vertex_range&#45;&gt;mapped_vertex_range</title>
<path fill="none" stroke="black" stroke-dasharray="5,2" d="M401.25,-258.98C429.57,-248.16 464.47,-234.63 495.5,-222 550.44,-199.65 612.11,-173.24 658.34,-153.17"/>
<polygon fill="black" stroke="black" points="659.89,-156.32 667.67,-149.12 657.1,-149.9 659.89,-156.32"/>
<text text-anchor="middle" x="632" y="-201.8" font-family="Helvetica,sans-Serif" font-size="9.00"> &#160;!index_vertex_range</text>
</g>
<!-- vertex_range&#45;&gt;adjacency_list -->
<g id="edge9" class="edge">
<title>vertex_range&#45;&gt;adjacency_list</title>
<path fill="none" stroke="black" d="M358.27,-258.71C363.5,-250 369.59,-239.86 375.06,-230.74"/>
<polygon fill="black" stroke="black" points="378.12,-232.44 380.26,-222.06 372.12,-228.83 378.12,-232.44"/>
</g>
<!-- index_adjacency_list -->
<g id="node13" class="node">
<title>index_adjacency_list</title>
<path fill="#e2d9f3" stroke="black" d="M200,-50C200,-50 69,-50 69,-50 63,-50 57,-44 57,-38 57,-38 57,-18 57,-18 57,-12 63,-6 69,-6 69,-6 200,-6 200,-6 206,-6 212,-12 212,-18 212,-18 212,-38 212,-38 212,-44 206,-50 200,-50"/>
<text text-anchor="middle" x="134.5" y="-37.2" font-family="Helvetica,sans-Serif" font-size="11.00">index_adjacency_list&lt;G&gt;</text>
<text text-anchor="middle" x="134.5" y="-25.2" font-family="Helvetica,sans-Serif" font-size="11.00">adjacency_list</text>
<text text-anchor="middle" x="134.5" y="-13.2" font-family="Helvetica,sans-Serif" font-size="11.00">+ index_vertex_range</text>
</g>
<!-- index_vertex_range&#45;&gt;index_adjacency_list -->
<g id="edge14" class="edge">
<title>index_vertex_range&#45;&gt;index_adjacency_list</title>
<path fill="none" stroke="black" d="M89.18,-98.89C96.87,-87.03 106.6,-72.04 115.06,-58.98"/>
<polygon fill="black" stroke="black" points="118.18,-60.6 120.69,-50.31 112.31,-56.79 118.18,-60.6"/>
</g>
<!-- index_bidirectional_adjacency_list -->
<g id="node15" class="node">
<title>index_bidirectional_adjacency_list</title>
<path fill="#e2d9f3" stroke="black" d="M389,-56C389,-56 276,-56 276,-56 270,-56 264,-50 264,-44 264,-44 264,-12 264,-12 264,-6 270,0 276,0 276,0 389,0 389,0 395,0 401,-6 401,-12 401,-12 401,-44 401,-44 401,-50 395,-56 389,-56"/>
<text text-anchor="middle" x="332.5" y="-43.2" font-family="Helvetica,sans-Serif" font-size="11.00">index_bidirectional</text>
<text text-anchor="middle" x="332.5" y="-31.2" font-family="Helvetica,sans-Serif" font-size="11.00">_adjacency_list&lt;G&gt;</text>
<text text-anchor="middle" x="332.5" y="-19.2" font-family="Helvetica,sans-Serif" font-size="11.00">bidirectional</text>
<text text-anchor="middle" x="332.5" y="-7.2" font-family="Helvetica,sans-Serif" font-size="11.00">+ index_vertex_range</text>
</g>
<!-- index_vertex_range&#45;&gt;index_bidirectional_adjacency_list -->
<g id="edge18" class="edge">
<title>index_vertex_range&#45;&gt;index_bidirectional_adjacency_list</title>
<path fill="none" stroke="black" d="M135.11,-98.89C170.51,-86.36 215.82,-70.31 254.1,-56.76"/>
<polygon fill="black" stroke="black" points="255.41,-60.01 263.67,-53.37 253.08,-53.41 255.41,-60.01"/>
</g>
<!-- mapped_adjacency_list -->
<g id="node14" class="node">
<title>mapped_adjacency_list</title>
<path fill="#e2d9f3" stroke="black" d="M791.5,-50C791.5,-50 645.5,-50 645.5,-50 639.5,-50 633.5,-44 633.5,-38 633.5,-38 633.5,-18 633.5,-18 633.5,-12 639.5,-6 645.5,-6 645.5,-6 791.5,-6 791.5,-6 797.5,-6 803.5,-12 803.5,-18 803.5,-18 803.5,-38 803.5,-38 803.5,-44 797.5,-50 791.5,-50"/>
<text text-anchor="middle" x="718.5" y="-37.2" font-family="Helvetica,sans-Serif" font-size="11.00">mapped_adjacency_list&lt;G&gt;</text>
<text text-anchor="middle" x="718.5" y="-25.2" font-family="Helvetica,sans-Serif" font-size="11.00">adjacency_list</text>
<text text-anchor="middle" x="718.5" y="-13.2" font-family="Helvetica,sans-Serif" font-size="11.00">+ mapped_vertex_range</text>
</g>
<!-- mapped_vertex_range&#45;&gt;mapped_adjacency_list -->
<g id="edge16" class="edge">
<title>mapped_vertex_range&#45;&gt;mapped_adjacency_list</title>
<path fill="none" stroke="black" d="M726.2,-92.7C724.97,-82.49 723.55,-70.82 722.28,-60.28"/>
<polygon fill="black" stroke="black" points="725.74,-59.72 721.06,-50.21 718.79,-60.56 725.74,-59.72"/>
</g>
<!-- mapped_bidirectional_adjacency_list -->
<g id="node16" class="node">
<title>mapped_bidirectional_adjacency_list</title>
<path fill="#e2d9f3" stroke="black" d="M575.5,-56C575.5,-56 447.5,-56 447.5,-56 441.5,-56 435.5,-50 435.5,-44 435.5,-44 435.5,-12 435.5,-12 435.5,-6 441.5,0 447.5,0 447.5,0 575.5,0 575.5,0 581.5,0 587.5,-6 587.5,-12 587.5,-12 587.5,-44 587.5,-44 587.5,-50 581.5,-56 575.5,-56"/>
<text text-anchor="middle" x="511.5" y="-43.2" font-family="Helvetica,sans-Serif" font-size="11.00">mapped_bidirectional</text>
<text text-anchor="middle" x="511.5" y="-31.2" font-family="Helvetica,sans-Serif" font-size="11.00">_adjacency_list&lt;G&gt;</text>
<text text-anchor="middle" x="511.5" y="-19.2" font-family="Helvetica,sans-Serif" font-size="11.00">bidirectional</text>
<text text-anchor="middle" x="511.5" y="-7.2" font-family="Helvetica,sans-Serif" font-size="11.00">+ mapped_vertex_range</text>
</g>
<!-- mapped_vertex_range&#45;&gt;mapped_bidirectional_adjacency_list -->
<g id="edge20" class="edge">
<title>mapped_vertex_range&#45;&gt;mapped_bidirectional_adjacency_list</title>
<path fill="none" stroke="black" d="M664.68,-92.94C639.87,-82.58 611.37,-70.69 585.74,-59.99"/>
<polygon fill="black" stroke="black" points="587.02,-56.73 576.44,-56.11 584.32,-63.19 587.02,-56.73"/>
</g>
<!-- ordered_vertex_edges -->
<g id="node11" class="node">
<title>ordered_vertex_edges</title>
<path fill="#f8d7da" stroke="black" d="M367,-143C367,-143 220,-143 220,-143 214,-143 208,-137 208,-131 208,-131 208,-111 208,-111 208,-105 214,-99 220,-99 220,-99 367,-99 367,-99 373,-99 379,-105 379,-111 379,-111 379,-131 379,-131 379,-137 373,-143 367,-143"/>
<text text-anchor="middle" x="293.5" y="-130.2" font-family="Helvetica,sans-Serif" font-size="11.00">ordered_vertex_edges&lt;G&gt;</text>
<text text-anchor="middle" x="293.5" y="-118.2" font-family="Helvetica,sans-Serif" font-size="11.00">adjacency_list</text>
<text text-anchor="middle" x="293.5" y="-106.2" font-family="Helvetica,sans-Serif" font-size="11.00">+ edges sorted by target_id</text>
</g>
<!-- adjacency_list&#45;&gt;ordered_vertex_edges -->
<g id="edge10" class="edge">
<title>adjacency_list&#45;&gt;ordered_vertex_edges</title>
<path fill="none" stroke="black" d="M369.93,-185.82C357.35,-175.32 340.98,-161.65 326.61,-149.65"/>
<polygon fill="black" stroke="black" points="328.79,-146.91 318.87,-143.19 324.31,-152.29 328.79,-146.91"/>
</g>
<!-- adjacency_list&#45;&gt;bidirectional_adjacency_list -->
<g id="edge11" class="edge">
<title>adjacency_list&#45;&gt;bidirectional_adjacency_list</title>
<path fill="none" stroke="black" d="M412.34,-185.82C425.7,-175.32 443.09,-161.65 458.34,-149.65"/>
<polygon fill="black" stroke="black" points="460.86,-152.12 466.56,-143.19 456.53,-146.62 460.86,-152.12"/>
</g>
<!-- adjacency_list&#45;&gt;index_adjacency_list -->
<g id="edge13" class="edge">
<title>adjacency_list&#45;&gt;index_adjacency_list</title>
<path fill="none" stroke="black" d="M293.56,-191.46C260.68,-183.69 225.48,-170.71 198.5,-149 183.37,-136.83 161.26,-90.76 147.39,-59.37"/>
<polygon fill="black" stroke="black" points="150.57,-57.92 143.36,-50.16 144.16,-60.73 150.57,-57.92"/>
</g>
<!-- adjacency_list&#45;&gt;mapped_adjacency_list -->
<g id="edge15" class="edge">
<title>adjacency_list&#45;&gt;mapped_adjacency_list</title>
<path fill="none" stroke="black" d="M487.1,-192.49C524.42,-184.86 565.89,-171.7 598.5,-149 623.39,-131.67 616.71,-115.08 637.5,-93 650.03,-79.69 665.43,-66.83 679.43,-56.17"/>
<polygon fill="black" stroke="black" points="681.55,-58.95 687.47,-50.16 677.37,-53.34 681.55,-58.95"/>
</g>
<!-- bidirectional_adjacency_list&#45;&gt;index_bidirectional_adjacency_list -->
<g id="edge17" class="edge">
<title>bidirectional_adjacency_list&#45;&gt;index_bidirectional_adjacency_list</title>
<path fill="none" stroke="black" d="M456.16,-98.89C436.32,-87.68 411.51,-73.66 389.34,-61.13"/>
<polygon fill="black" stroke="black" points="390.77,-57.91 380.34,-56.04 387.33,-64.01 390.77,-57.91"/>
</g>
<!-- bidirectional_adjacency_list&#45;&gt;mapped_bidirectional_adjacency_list -->
<g id="edge19" class="edge">
<title>bidirectional_adjacency_list&#45;&gt;mapped_bidirectional_adjacency_list</title>
<path fill="none" stroke="black" d="M497.67,-98.89C499.6,-89.17 501.94,-77.33 504.15,-66.18"/>
<polygon fill="black" stroke="black" points="507.61,-66.7 506.12,-56.21 500.74,-65.34 507.61,-66.7"/>
</g>
</g>
</svg>
