<?xml version="1.0" encoding="UTF-8" standalone="no"?>
<!DOCTYPE svg PUBLIC "-//W3C//DTD SVG 1.1//EN"
 "http://www.w3.org/Graphics/SVG/1.1/DTD/svg11.dtd">
<!-- Generated by graphviz version 2.50.0 (20211204.2007)
 -->
<!-- Title: ConceptHierarchy Pages: 1 -->
<svg width="812pt" height="392pt"
 viewBox="0.00 0.00 811.50 392.00" xmlns="http://www.w3.org/2000/svg" xmlns:xlink="http://www.w3.org/1999/xlink">
<g id="graph0" class="graph" transform="scale(1 1) rotate(0) translate(4 388)">
<title>ConceptHierarchy</title>
<polygon fill="white" stroke="transparent" points="-4,4 -4,-388 807.5,-388 807.5,4 -4,4"/>
<!-- edge_c -->
<g id="node1" class="node">
<title>edge_c</title>
<path fill="#cce5ff" stroke="black" d="M573.5,-380C573.5,-380 481.5,-380 481.5,-380 475.5,-380 469.5,-374 469.5,-368 469.5,-368 469.5,-356 469.5,-356 469.5,-350 475.5,-344 481.5,-344 481.5,-344 573.5,-344 573.5,-344 579.5,-344 585.5,-350 585.5,-356 585.5,-356 585.5,-368 585.5,-368 585.5,-374 579.5,-380 573.5,-380"/>
<text text-anchor="middle" x="527.5" y="-365.2" font-family="Helvetica,sans-Serif" font-size="11.00">edge&lt;G,E&gt;</text>
<text text-anchor="middle" x="527.5" y="-353.2" font-family="Helvetica,sans-Serif" font-size="11.00">source_id · target_id</text>
</g>
<!-- out_edge_range -->
<g id="node4" class="node">
<title>out_edge_range</title>
<path fill="#d4edda" stroke="black" d="M524,-299C524,-299 393,-299 393,-299 387,-299 381,-293 381,-287 381,-287 381,-275 381,-275 381,-269 387,-263 393,-263 393,-263 524,-263 524,-263 530,-263 536,-269 536,-275 536,-275 536,-287 536,-287 536,-293 530,-299 524,-299"/>
<text text-anchor="middle" x="458.5" y="-284.2" font-family="Helvetica,sans-Serif" font-size="11.00">out_edge_range&lt;R,G&gt;</text>
<text text-anchor="middle" x="458.5" y="-272.2" font-family="Helvetica,sans-Serif" font-size="11.00">forward_range of edge&lt;G,·&gt;</text>
</g>
<!-- edge_c&#45;&gt;out_edge_range -->
<g id="edge1" class="edge">
<title>edge_c&#45;&gt;out_edge_range</title>
<path fill="none" stroke="black" d="M512.53,-343.86C503.03,-332.99 490.6,-318.75 480.05,-306.67"/>
<polygon fill="black" stroke="black" points="482.66,-304.34 473.44,-299.11 477.38,-308.94 482.66,-304.34"/>
</g>
<!-- in_edge_range -->
<g id="node5" class="node">
<title>in_edge_range</title>
<path fill="#d4edda" stroke="black" d="M697,-299C697,-299 566,-299 566,-299 560,-299 554,-293 554,-287 554,-287 554,-275 554,-275 554,-269 560,-263 566,-263 566,-263 697,-263 697,-263 703,-263 709,-269 709,-275 709,-275 709,-287 709,-287 709,-293 703,-299 697,-299"/>
<text text-anchor="middle" x="631.5" y="-284.2" font-family="Helvetica,sans-Serif" font-size="11.00">in_edge_range&lt;R,G&gt;</text>
<text text-anchor="middle" x="631.5" y="-272.2" font-family="Helvetica,sans-Serif" font-size="11.00">forward_range of edge&lt;G,·&gt;</text>
</g>
<!-- edge_c&#45;&gt;in_edge_range -->
<g id="edge2" class="edge">
<title>edge_c&#45;&gt;in_edge_range</title>
<path fill="none" stroke="black" d="M550.07,-343.86C564.92,-332.57 584.55,-317.66 600.82,-305.3"/>
<polygon fill="black" stroke="black" points="603.13,-307.94 608.98,-299.11 598.9,-302.37 603.13,-307.94"/>
</g>
<!-- vertex_c -->
<g id="node2" class="node">
<title>vertex_c</title>
<path fill="#cce5ff" stroke="black" d="M331.5,-384C331.5,-384 233.5,-384 233.5,-384 227.5,-384 221.5,-378 221.5,-372 221.5,-372 221.5,-352 221.5,-352 221.5,-346 227.5,-340 233.5,-340 233.5,-340 331.5,-340 331.5,-340 337.5,-340 343.5,-346 343.5,-352 343.5,-352 343.5,-372 343.5,-372 343.5,-378 337.5,-384 331.5,-384"/>
<text text-anchor="middle" x="282.5" y="-371.2" font-family="Helvetica,sans-Serif" font-size="11.00">vertex&lt;G,V&gt;</text>
<text text-anchor="middle" x="282.5" y="-359.2" font-family="Helvetica,sans-Serif" font-size="11.00">vertex_descriptor</text>
<text text-anchor="middle" x="282.5" y="-347.2" font-family="Helvetica,sans-Serif" font-size="11.00">vertex_id · find_vertex</text>
</g>
<!-- vertex_range -->
<g id="node6" class="node">
<title>vertex_range</title>
<path fill="#d4edda" stroke="black" d="M350.5,-303C350.5,-303 214.5,-303 214.5,-303 208.5,-303 202.5,-297 202.5,-291 202.5,-291 202.5,-271 202.5,-271 202.5,-265 208.5,-259 214.5,-259 214.5,-259 350.5,-259 350.5,-259 356.5,-259 362.5,-265 362.5,-271 362.5,-271 362.5,-291 362.5,-291 362.5,-297 356.5,-303 350.5,-303"/>
<text text-anchor="middle" x="282.5" y="-290.2" font-family="Helvetica,sans-Serif" font-size="11.00">vertex_range&lt;R,G&gt;</text>
<text text-anchor="middle" x="282.5" y="-278.2" font-family="Helvetica,sans-Serif" font-size="11.00">forward_range + sized_range</text>
<text text-anchor="middle" x="282.5" y="-266.2" font-family="Helvetica,sans-Serif" font-size="11.00">of vertex&lt;G,·&gt;</text>
</g>
<!-- vertex_c&#45;&gt;vertex_range -->
<g id="edge3" class="edge">
<title>vertex_c&#45;&gt;vertex_range</title>
<path fill="none" stroke="black" d="M282.5,-339.83C282.5,-331.68 282.5,-322.2 282.5,-313.3"/>
<polygon fill="black" stroke="black" points="286,-313.23 282.5,-303.23 279,-313.23 286,-313.23"/>
</g>
<!-- hashable_vertex_id -->
<g id="node3" class="node">
<title>hashable_vertex_id</title>
<path fill="#cce5ff" stroke="black" d="M791.5,-380C791.5,-380 683.5,-380 683.5,-380 677.5,-380 671.5,-374 671.5,-368 671.5,-368 671.5,-356 671.5,-356 671.5,-350 677.5,-344 683.5,-344 683.5,-344 791.5,-344 791.5,-344 797.5,-344 803.5,-350 803.5,-356 803.5,-356 803.5,-368 803.5,-368 803.5,-374 797.5,-380 791.5,-380"/>
<text text-anchor="middle" x="737.5" y="-365.2" font-family="Helvetica,sans-Serif" font-size="11.00">hashable_vertex_id&lt;G&gt;</text>
<text text-anchor="middle" x="737.5" y="-353.2" font-family="Helvetica,sans-Serif" font-size="11.00">hash(vertex_id_t&lt;G&gt;)</text>
</g>
<!-- mapped_vertex_range -->
<g id="node8" class="node">
<title>mapped_vertex_range</title>
<path fill="#fff3cd" stroke="black" d="M720,-149C720,-149 597,-149 597,-149 591,-149 585,-143 585,-137 585,-137 585,-105 585,-105 585,-99 591,-93 597,-93 597,-93 720,-93 720,-93 726,-93 732,-99 732,-105 732,-105 732,-137 732,-137 732,-143 726,-149 720,-149"/>
<text text-anchor="middle" x="658.5" y="-136.2" font-family="Helvetica,sans-Serif" font-size="11.00">mapped_vertex_range&lt;G&gt;</text>
<text text-anchor="middle" x="658.5" y="-124.2" font-family="Helvetica,sans-Serif" font-size="11.00">!index_vertex_range</text>
<text text-anchor="middle" x="658.5" y="-112.2" font-family="Helvetica,sans-Serif" font-size="11.00">hashable_vertex_id</text>
<text text-anchor="middle" x="658.5" y="-100.2" font-family="Helvetica,sans-Serif" font-size="11.00">find_vertex</text>
</g>
<!-- hashable_vertex_id&#45;&gt;mapped_vertex_range -->
<g id="edge6" class="edge">
<title>hashable_vertex_id&#45;&gt;mapped_vertex_range</title>
<path fill="none" stroke="black" d="M735.33,-343.8C732.52,-323.33 726.95,-288.25 718.5,-259 708.81,-225.46 703.56,-217.95 689.5,-186 685.51,-176.94 680.98,-167.28 676.64,-158.29"/>
<polygon fill="black" stroke="black" points="679.74,-156.66 672.22,-149.2 673.45,-159.73 679.74,-156.66"/>
</g>
<!-- adjacency_list -->
<g id="node9" class="node">
<title>adjacency_list</title>
<path fill="#f8d7da" stroke="black" d="M400,-222C400,-222 253,-222 253,-222 247,-222 241,-216 241,-210 241,-210 241,-198 241,-198 241,-192 247,-186 253,-186 253,-186 400,-186 400,-186 406,-186 412,-192 412,-198 412,-198 412,-210 412,-210 412,-216 406,-222 400,-222"/>
<text text-anchor="middle" x="326.5" y="-207.2" font-family="Helvetica,sans-Serif" font-size="11.00">adjacency_list&lt;G&gt;</text>
<text text-anchor="middle" x="326.5" y="-195.2" font-family="Helvetica,sans-Serif" font-size="11.00">vertex_range + out_edge_range</text>
</g>
<!-- out_edge_range&#45;&gt;adjacency_list -->
<g id="edge7" class="edge">
<title>out_edge_range&#45;&gt;adjacency_list</title>
<path fill="none" stroke="black" d="M428.55,-262.98C409.95,-252.41 385.83,-238.71 365.72,-227.28"/>
<polygon fill="black" stroke="black" points="367.21,-224.11 356.79,-222.21 363.76,-230.19 367.21,-224.11"/>
</g>
<!-- bidirectional_adjacency_list -->
<g id="node11" class="node">
<title>bidirectional_adjacency_list</title>
<path fill="#f8d7da" stroke="black" d="M516,-143C516,-143 369,-143 369,-143 363,-143 357,-137 357,-131 357,-131 357,-111 357,-111 357,-105 363,-99 369,-99 369,-99 516,-99 516,-99 522,-99 528,-105 528,-111 528,-111 528,-131 528,-131 528,-137 522,-143 516,-143"/>
<text text-anchor="middle" x="442.5" y="-130.2" font-family="Helvetica,sans-Serif" font-size="11.00">bidirectional_adjacency_list&lt;G&gt;</text>
<text text-anchor="middle" x="442.5" y="-118.2" font-family="Helvetica,sans-Serif" font-size="11.00">adjacency_list</text>
<text text-anchor="middle" x="442.5" y="-106.2" font-family="Helvetica,sans-Serif" font-size="11.00">+ in_edge_range</text>
</g>
<!-- in_edge_range&#45;&gt;bidirectional_adjacency_list -->
<g id="edge11" class="edge">
<title>in_edge_range&#45;&gt;bidirectional_adjacency_list</title>
<path fill="none" stroke="black" d="M649.12,-262.76C667.28,-242.86 690.59,-209.82 672.5,-186 663.82,-174.57 597.17,-156.77 537.85,-142.84"/>
<polygon fill="black" stroke="black" points="538.55,-139.41 528.02,-140.55 536.96,-146.23 538.55,-139.41"/>
</g>
<!-- index_vertex_range -->
<g id="node7" class="node">
<title>index_vertex_range</title>
<path fill="#fff3cd" stroke="black" d="M121,-143C121,-143 12,-143 12,-143 6,-143 0,-137 0,-131 0,-131 0,-111 0,-111 0,-105 6,-99 12,-99 12,-99 121,-99 121,-99 127,-99 133,-105 133,-111 133,-111 133,-131 133,-131 133,-137 127,-143 121,-143"/>
<text text-anchor="middle" x="66.5" y="-130.2" font-family="Helvetica,sans-Serif" font-size="11.00">index_vertex_range&lt;G&gt;</text>
<text text-anchor="middle" x="66.5" y="-118.2" font-family="Helvetica,sans-Serif" font-size="11.00">integral vid</text>
<text text-anchor="middle" x="66.5" y="-106.2" font-family="Helvetica,sans-Serif" font-size="11.00">integral storage_type</text>
</g>
<!-- vertex_range&#45;&gt;index_vertex_range -->
<g id="edge4" class="edge">
<title>vertex_range&#45;&gt;index_vertex_range</title>
<path fill="none" stroke="black" d="M253.37,-258.69C214.61,-230.34 146.06,-180.2 103.63,-149.16"/>
<polygon fill="black" stroke="black" points="105.65,-146.3 95.51,-143.22 101.52,-151.95 105.65,-146.3"/>
</g>
<!-- vertex_range&#45;&gt;mapped_vertex_range -->
<g id="edge5" class="edge">
<title>vertex_range&#45;&gt;mapped_vertex_range</title>
<path fill="none" stroke="black" stroke-dasharray="5,2" d="M332.82,-258.86C397.49,-231.68 510.28,-184.28 584.67,-153.02"/>
<polygon fill="black" stroke="black" points="586.14,-156.2 594,-149.1 583.43,-149.75 586.14,-156.2"/>
<text text-anchor="middle" x="549" y="-201.8" font-family="Helvetica,sans-Serif" font-size="9.00"> &#160;!index_vertex_range</text>
</g>
<!-- vertex_range&#45;&gt;adjacency_list -->
<g id="edge8" class="edge">
<title>vertex_range&#45;&gt;adjacency_list</title>
<path fill="none" stroke="black" d="M294.99,-258.71C300.1,-250 306.05,-239.86 311.4,-230.74"/>
<polygon fill="black" stroke="black" points="314.45,-232.46 316.49,-222.06 308.41,-228.91 314.45,-232.46"/>
</g>
<!-- index_adjacency_list -->
<g id="node12" class="node">
<title>index_adjacency_list</title>
<path fill="#e2d9f3" stroke="black" d="M181,-50C181,-50 66,-50 66,-50 60,-50 54,-44 54,-38 54,-38 54,-18 54,-18 54,-12 60,-6 66,-6 66,-6 181,-6 181,-6 187,-6 193,-12 193,-18 193,-18 193,-38 193,-38 193,-44 187,-50 181,-50"/>
<text text-anchor="middle" x="123.5" y="-37.2" font-family="Helvetica,sans-Serif" font-size="11.00">index_adjacency_list&lt;G&gt;</text>
<text text-anchor="middle" x="123.5" y="-25.2" font-family="Helvetica,sans-Serif" font-size="11.00">adjacency_list</text>
<text text-anchor="middle" x="123.5" y="-13.2" font-family="Helvetica,sans-Serif" font-size="11.00">+ index_vertex_range</text>
</g>
<!-- index_vertex_range&#45;&gt;index_adjacency_list -->
<g id="edge13" class="edge">
<title>index_vertex_range&#45;&gt;index_adjacency_list</title>
<path fill="none" stroke="black" d="M79.72,-98.89C87.15,-87.03 96.54,-72.04 104.72,-58.98"/>
<polygon fill="black" stroke="black" points="107.81,-60.64 110.15,-50.31 101.88,-56.92 107.81,-60.64"/>
</g>
<!-- index_bidirectional_adjacency_list -->
<g id="node14" class="node">
<title>index_bidirectional_adjacency_list</title>
<path fill="#e2d9f3" stroke="black" d="M350,-56C350,-56 253,-56 253,-56 247,-56 241,-50 241,-44 241,-44 241,-12 241,-12 241,-6 247,0 253,0 253,0 350,0 350,0 356,0 362,-6 362,-12 362,-12 362,-44 362,-44 362,-50 356,-56 350,-56"/>
<text text-anchor="middle" x="301.5" y="-43.2" font-family="Helvetica,sans-Serif" font-size="11.00">index_bidirectional</text>
<text text-anchor="middle" x="301.5" y="-31.2" font-family="Helvetica,sans-Serif" font-size="11.00">_adjacency_list&lt;G&gt;</text>
<text text-anchor="middle" x="301.5" y="-19.2" font-family="Helvetica,sans-Serif" font-size="11.00">bidirectional</text>
<text text-anchor="middle" x="301.5" y="-7.2" font-family="Helvetica,sans-Serif" font-size="11.00">+ index_vertex_range</text>
</g>
<!-- index_vertex_range&#45;&gt;index_bidirectional_adjacency_list -->
<g id="edge17" class="edge">
<title>index_vertex_range&#45;&gt;index_bidirectional_adjacency_list</title>
<path fill="none" stroke="black" d="M121,-98.89C153.72,-86.22 195.7,-69.97 230.93,-56.33"/>
<polygon fill="black" stroke="black" points="232.61,-59.43 240.68,-52.55 230.09,-52.9 232.61,-59.43"/>
</g>
<!-- mapped_adjacency_list -->
<g id="node13" class="node">
<title>mapped_adjacency_list</title>
<path fill="#e2d9f3" stroke="black" d="M690,-50C690,-50 561,-50 561,-50 555,-50 549,-44 549,-38 549,-38 549,-18 549,-18 549,-12 555,-6 561,-6 561,-6 690,-6 690,-6 696,-6 702,-12 702,-18 702,-18 702,-38 702,-38 702,-44 696,-50 690,-50"/>
<text text-anchor="middle" x="625.5" y="-37.2" font-family="Helvetica,sans-Serif" font-size="11.00">mapped_adjacency_list&lt;G&gt;</text>
<text text-anchor="middle" x="625.5" y="-25.2" font-family="Helvetica,sans-Serif" font-size="11.00">adjacency_list</text>
<text text-anchor="middle" x="625.5" y="-13.2" font-family="Helvetica,sans-Serif" font-size="11.00">+ mapped_vertex_range</text>
</g>
<!-- mapped_vertex_range&#45;&gt;mapped_adjacency_list -->
<g id="edge15" class="edge">
<title>mapped_vertex_range&#45;&gt;mapped_adjacency_list</title>
<path fill="none" stroke="black" d="M648.6,-92.7C644.82,-82.28 640.49,-70.33 636.6,-59.62"/>
<polygon fill="black" stroke="black" points="639.89,-58.42 633.19,-50.21 633.31,-60.8 639.89,-58.42"/>
</g>
<!-- mapped_bidirectional_adjacency_list -->
<g id="node15" class="node">
<title>mapped_bidirectional_adjacency_list</title>
<path fill="#e2d9f3" stroke="black" d="M518,-56C518,-56 407,-56 407,-56 401,-56 395,-50 395,-44 395,-44 395,-12 395,-12 395,-6 401,0 407,0 407,0 518,0 518,0 524,0 530,-6 530,-12 530,-12 530,-44 530,-44 530,-50 524,-56 518,-56"/>
<text text-anchor="middle" x="462.5" y="-43.2" font-family="Helvetica,sans-Serif" font-size="11.00">mapped_bidirectional</text>
<text text-anchor="middle" x="462.5" y="-31.2" font-family="Helvetica,sans-Serif" font-size="11.00">_adjacency_list&lt;G&gt;</text>
<text text-anchor="middle" x="462.5" y="-19.2" font-family="Helvetica,sans-Serif" font-size="11.00">bidirectional</text>
<text text-anchor="middle" x="462.5" y="-7.2" font-family="Helvetica,sans-Serif" font-size="11.00">+ mapped_vertex_range</text>
</g>
<!-- mapped_vertex_range&#45;&gt;mapped_bidirectional_adjacency_list -->
<g id="edge19" class="edge">
<title>mapped_vertex_range&#45;&gt;mapped_bidirectional_adjacency_list</title>
<path fill="none" stroke="black" d="M600.22,-92.94C578.21,-82.72 552.97,-71 530.16,-60.41"/>
<polygon fill="black" stroke="black" points="531.43,-57.15 520.89,-56.11 528.49,-63.5 531.43,-57.15"/>
</g>
<!-- ordered_vertex_edges -->
<g id="node10" class="node">
<title>ordered_vertex_edges</title>
<path fill="#f8d7da" stroke="black" d="M327,-143C327,-143 202,-143 202,-143 196,-143 190,-137 190,-131 190,-131 190,-111 190,-111 190,-105 196,-99 202,-99 202,-99 327,-99 327,-99 333,-99 339,-105 339,-111 339,-111 339,-131 339,-131 339,-137 333,-143 327,-143"/>
<text text-anchor="middle" x="264.5" y="-130.2" font-family="Helvetica,sans-Serif" font-size="11.00">ordered_vertex_edges&lt;G&gt;</text>
<text text-anchor="middle" x="264.5" y="-118.2" font-family="Helvetica,sans-Serif" font-size="11.00">adjacency_list</text>
<text text-anchor="middle" x="264.5" y="-106.2" font-family="Helvetica,sans-Serif" font-size="11.00">+ edges sorted by target_id</text>
</g>
<!-- adjacency_list&#45;&gt;ordered_vertex_edges -->
<g id="edge9" class="edge">
<title>adjacency_list&#45;&gt;ordered_vertex_edges</title>
<path fill="none" stroke="black" d="M313.35,-185.82C305.69,-175.81 295.81,-162.91 286.95,-151.33"/>
<polygon fill="black" stroke="black" points="289.58,-149 280.72,-143.19 284.02,-153.26 289.58,-149"/>
</g>
<!-- adjacency_list&#45;&gt;bidirectional_adjacency_list -->
<g id="edge10" class="edge">
<title>adjacency_list&#45;&gt;bidirectional_adjacency_list</title>
<path fill="none" stroke="black" d="M351.1,-185.82C366.42,-175.13 386.45,-161.14 403.85,-148.99"/>
<polygon fill="black" stroke="black" points="405.96,-151.78 412.15,-143.19 401.95,-146.04 405.96,-151.78"/>
</g>
<!-- adjacency_list&#45;&gt;index_adjacency_list -->
<g id="edge12" class="edge">
<title>adjacency_list&#45;&gt;index_adjacency_list</title>
<path fill="none" stroke="black" d="M247.24,-185.96C223.65,-177.85 199.15,-166.05 180.5,-149 154.39,-125.12 139.11,-86.77 131.05,-59.87"/>
<polygon fill="black" stroke="black" points="134.39,-58.84 128.3,-50.17 127.66,-60.75 134.39,-58.84"/>
</g>
<!-- adjacency_list&#45;&gt;mapped_adjacency_list -->
<g id="edge14" class="edge">
<title>adjacency_list&#45;&gt;mapped_adjacency_list</title>
<path fill="none" stroke="black" d="M412.23,-194.89C452.75,-187.74 500.09,-174.29 536.5,-149 561.41,-131.7 557.49,-117.4 575.5,-93 584.04,-81.43 593.71,-68.92 602.26,-58.05"/>
<polygon fill="black" stroke="black" points="605.08,-60.12 608.54,-50.11 599.59,-55.78 605.08,-60.12"/>
</g>
<!-- bidirectional_adjacency_list&#45;&gt;index_bidirectional_adjacency_list -->
<g id="edge16" class="edge">
<title>bidirectional_adjacency_list&#45;&gt;index_bidirectional_adjacency_list</title>
<path fill="none" stroke="black" d="M409.8,-98.89C392.65,-87.83 371.28,-74.03 352.06,-61.63"/>
<polygon fill="black" stroke="black" points="353.7,-58.52 343.4,-56.04 349.9,-64.4 353.7,-58.52"/>
</g>
<!-- bidirectional_adjacency_list&#45;&gt;mapped_bidirectional_adjacency_list -->
<g id="edge18" class="edge">
<title>bidirectional_adjacency_list&#45;&gt;mapped_bidirectional_adjacency_list</title>
<path fill="none" stroke="black" d="M447.14,-98.89C449.28,-89.17 451.88,-77.33 454.33,-66.18"/>
<polygon fill="black" stroke="black" points="457.79,-66.73 456.52,-56.21 450.95,-65.23 457.79,-66.73"/>
</g>
</g>
</svg>
