<?xml version="1.0" encoding="UTF-8" standalone="no"?>
<!DOCTYPE svg PUBLIC "-//W3C//DTD SVG 1.1//EN"
 "http://www.w3.org/Graphics/SVG/1.1/DTD/svg11.dtd">
<!-- Generated by graphviz version 2.43.0 (0)
 -->
<!-- Title: ConceptHierarchy Pages: 1 -->
<svg width="1118pt" height="424pt"
 viewBox="0.00 0.00 1118.00 424.00" xmlns="http://www.w3.org/2000/svg" xmlns:xlink="http://www.w3.org/1999/xlink">
<g id="graph0" class="graph" transform="scale(1 1) rotate(0) translate(4 420)">
<title>ConceptHierarchy</title>
<polygon fill="white" stroke="transparent" points="-4,4 -4,-420 1114,-420 1114,4 -4,4"/>
<!-- edge_c -->
<g id="node1" class="node">
<title>edge_c</title>
<path fill="#cce5ff" stroke="black" d="M779.5,-410C779.5,-410 705.5,-410 705.5,-410 699.5,-410 693.5,-404 693.5,-398 693.5,-398 693.5,-378 693.5,-378 693.5,-372 699.5,-366 705.5,-366 705.5,-366 779.5,-366 779.5,-366 785.5,-366 791.5,-372 791.5,-378 791.5,-378 791.5,-398 791.5,-398 791.5,-404 785.5,-410 779.5,-410"/>
<text text-anchor="middle" x="742.5" y="-397.2" font-family="Helvetica,sans-Serif" font-size="11.00">edge&lt;G,E&gt;</text>
<text text-anchor="middle" x="742.5" y="-385.2" font-family="Helvetica,sans-Serif" font-size="11.00">source_id(g, e)</text>
<text text-anchor="middle" x="742.5" y="-373.2" font-family="Helvetica,sans-Serif" font-size="11.00">target_id(g, e)</text>
</g>
<!-- out_edge_range -->
<g id="node4" class="node">
<title>out_edge_range</title>
<path fill="#d4edda" stroke="black" d="M755,-323C755,-323 600,-323 600,-323 594,-323 588,-317 588,-311 588,-311 588,-291 588,-291 588,-285 594,-279 600,-279 600,-279 755,-279 755,-279 761,-279 767,-285 767,-291 767,-291 767,-311 767,-311 767,-317 761,-323 755,-323"/>
<text text-anchor="middle" x="677.5" y="-310.2" font-family="Helvetica,sans-Serif" font-size="11.00">out_edge_range&lt;R,G&gt;</text>
<text text-anchor="middle" x="677.5" y="-298.2" font-family="Helvetica,sans-Serif" font-size="11.00">forward_range&lt;R&gt;</text>
<text text-anchor="middle" x="677.5" y="-286.2" font-family="Helvetica,sans-Serif" font-size="11.00">edge&lt;G, range_value_t&lt;R&gt;&gt;</text>
</g>
<!-- edge_c&#45;&gt;out_edge_range -->
<g id="edge1" class="edge">
<title>edge_c&#45;&gt;out_edge_range</title>
<path fill="none" stroke="black" d="M726.43,-365.99C718.39,-355.47 708.51,-342.56 699.75,-331.1"/>
<polygon fill="black" stroke="black" points="702.46,-328.88 693.61,-323.06 696.9,-333.13 702.46,-328.88"/>
</g>
<!-- in_edge_range -->
<g id="node5" class="node">
<title>in_edge_range</title>
<path fill="#d4edda" stroke="black" d="M952,-323C952,-323 797,-323 797,-323 791,-323 785,-317 785,-311 785,-311 785,-291 785,-291 785,-285 791,-279 797,-279 797,-279 952,-279 952,-279 958,-279 964,-285 964,-291 964,-291 964,-311 964,-311 964,-317 958,-323 952,-323"/>
<text text-anchor="middle" x="874.5" y="-310.2" font-family="Helvetica,sans-Serif" font-size="11.00">in_edge_range&lt;R,G&gt;</text>
<text text-anchor="middle" x="874.5" y="-298.2" font-family="Helvetica,sans-Serif" font-size="11.00">forward_range&lt;R&gt;</text>
<text text-anchor="middle" x="874.5" y="-286.2" font-family="Helvetica,sans-Serif" font-size="11.00">edge&lt;G, range_value_t&lt;R&gt;&gt;</text>
</g>
<!-- edge_c&#45;&gt;in_edge_range -->
<g id="edge2" class="edge">
<title>edge_c&#45;&gt;in_edge_range</title>
<path fill="none" stroke="black" d="M775.13,-365.99C792.66,-354.7 814.46,-340.67 833.16,-328.62"/>
<polygon fill="black" stroke="black" points="835.28,-331.42 841.79,-323.06 831.49,-325.54 835.28,-331.42"/>
</g>
<!-- vertex_c -->
<g id="node2" class="node">
<title>vertex_c</title>
<path fill="#cce5ff" stroke="black" d="M527,-416C527,-416 386,-416 386,-416 380,-416 374,-410 374,-404 374,-404 374,-372 374,-372 374,-366 380,-360 386,-360 386,-360 527,-360 527,-360 533,-360 539,-366 539,-372 539,-372 539,-404 539,-404 539,-410 533,-416 527,-416"/>
<text text-anchor="middle" x="456.5" y="-403.2" font-family="Helvetica,sans-Serif" font-size="11.00">vertex&lt;G,V&gt;</text>
<text text-anchor="middle" x="456.5" y="-391.2" font-family="Helvetica,sans-Serif" font-size="11.00">is_vertex_descriptor_v&lt;V&gt;</text>
<text text-anchor="middle" x="456.5" y="-379.2" font-family="Helvetica,sans-Serif" font-size="11.00">vertex_id(g, u)</text>
<text text-anchor="middle" x="456.5" y="-367.2" font-family="Helvetica,sans-Serif" font-size="11.00">find_vertex(g, uid)</text>
</g>
<!-- vertex_range -->
<g id="node6" class="node">
<title>vertex_range</title>
<path fill="#d4edda" stroke="black" d="M558,-323C558,-323 355,-323 355,-323 349,-323 343,-317 343,-311 343,-311 343,-291 343,-291 343,-285 349,-279 355,-279 355,-279 558,-279 558,-279 564,-279 570,-285 570,-291 570,-291 570,-311 570,-311 570,-317 564,-323 558,-323"/>
<text text-anchor="middle" x="456.5" y="-310.2" font-family="Helvetica,sans-Serif" font-size="11.00">vertex_range&lt;R,G&gt;</text>
<text text-anchor="middle" x="456.5" y="-298.2" font-family="Helvetica,sans-Serif" font-size="11.00">forward_range&lt;R&gt; ∧ sized_range&lt;R&gt;</text>
<text text-anchor="middle" x="456.5" y="-286.2" font-family="Helvetica,sans-Serif" font-size="11.00">vertex&lt;G, range_value_t&lt;R&gt;&gt;</text>
</g>
<!-- vertex_c&#45;&gt;vertex_range -->
<g id="edge3" class="edge">
<title>vertex_c&#45;&gt;vertex_range</title>
<path fill="none" stroke="black" d="M456.5,-359.64C456.5,-351.22 456.5,-341.89 456.5,-333.23"/>
<polygon fill="black" stroke="black" points="460,-333.11 456.5,-323.11 453,-333.11 460,-333.11"/>
</g>
<!-- hashable_vertex_id -->
<g id="node3" class="node">
<title>hashable_vertex_id</title>
<path fill="#cce5ff" stroke="black" d="M1098,-406C1098,-406 887,-406 887,-406 881,-406 875,-400 875,-394 875,-394 875,-382 875,-382 875,-376 881,-370 887,-370 887,-370 1098,-370 1098,-370 1104,-370 1110,-376 1110,-382 1110,-382 1110,-394 1110,-394 1110,-400 1104,-406 1098,-406"/>
<text text-anchor="middle" x="992.5" y="-391.2" font-family="Helvetica,sans-Serif" font-size="11.00">hashable_vertex_id&lt;G&gt;</text>
<text text-anchor="middle" x="992.5" y="-379.2" font-family="Helvetica,sans-Serif" font-size="11.00">hash&lt;vertex_id_t&lt;G&gt;&gt;{}(uid) → size_t</text>
</g>
<!-- mapped_vertex_range -->
<g id="node8" class="node">
<title>mapped_vertex_range</title>
<path fill="#fff3cd" stroke="black" d="M983.5,-161C983.5,-161 835.5,-161 835.5,-161 829.5,-161 823.5,-155 823.5,-149 823.5,-149 823.5,-105 823.5,-105 823.5,-99 829.5,-93 835.5,-93 835.5,-93 983.5,-93 983.5,-93 989.5,-93 995.5,-99 995.5,-105 995.5,-105 995.5,-149 995.5,-149 995.5,-155 989.5,-161 983.5,-161"/>
<text text-anchor="middle" x="909.5" y="-148.2" font-family="Helvetica,sans-Serif" font-size="11.00">mapped_vertex_range&lt;G&gt;</text>
<text text-anchor="middle" x="909.5" y="-136.2" font-family="Helvetica,sans-Serif" font-size="11.00">¬index_vertex_range&lt;G&gt;</text>
<text text-anchor="middle" x="909.5" y="-124.2" font-family="Helvetica,sans-Serif" font-size="11.00">hashable_vertex_id&lt;G&gt;</text>
<text text-anchor="middle" x="909.5" y="-112.2" font-family="Helvetica,sans-Serif" font-size="11.00">vertices(g) → forward_range</text>
<text text-anchor="middle" x="909.5" y="-100.2" font-family="Helvetica,sans-Serif" font-size="11.00">find_vertex(g, uid)</text>
</g>
<!-- hashable_vertex_id&#45;&gt;mapped_vertex_range -->
<g id="edge6" class="edge">
<title>hashable_vertex_id&#45;&gt;mapped_vertex_range</title>
<path fill="none" stroke="black" d="M990.63,-369.91C988.03,-348.4 982.57,-310.47 973.5,-279 962.74,-241.65 955.71,-233.78 940.5,-198 936.68,-189.01 932.5,-179.42 928.48,-170.3"/>
<polygon fill="black" stroke="black" points="931.62,-168.75 924.37,-161.03 925.22,-171.59 931.62,-168.75"/>
</g>
<!-- adjacency_list -->
<g id="node9" class="node">
<title>adjacency_list</title>
<path fill="#f8d7da" stroke="black" d="M683,-242C683,-242 474,-242 474,-242 468,-242 462,-236 462,-230 462,-230 462,-210 462,-210 462,-204 468,-198 474,-198 474,-198 683,-198 683,-198 689,-198 695,-204 695,-210 695,-210 695,-230 695,-230 695,-236 689,-242 683,-242"/>
<text text-anchor="middle" x="578.5" y="-229.2" font-family="Helvetica,sans-Serif" font-size="11.00">adjacency_list&lt;G&gt;</text>
<text text-anchor="middle" x="578.5" y="-217.2" font-family="Helvetica,sans-Serif" font-size="11.00">vertices(g) → vertex_range&lt;G&gt;</text>
<text text-anchor="middle" x="578.5" y="-205.2" font-family="Helvetica,sans-Serif" font-size="11.00">out_edges(g, u) → out_edge_range&lt;G&gt;</text>
</g>
<!-- out_edge_range&#45;&gt;adjacency_list -->
<g id="edge7" class="edge">
<title>out_edge_range&#45;&gt;adjacency_list</title>
<path fill="none" stroke="black" d="M650.97,-278.83C639.32,-269.53 625.48,-258.49 613.04,-248.56"/>
<polygon fill="black" stroke="black" points="615.1,-245.73 605.1,-242.23 610.74,-251.2 615.1,-245.73"/>
</g>
<!-- bidirectional_adjacency_list -->
<g id="node11" class="node">
<title>bidirectional_adjacency_list</title>
<path fill="#f8d7da" stroke="black" d="M755.5,-155C755.5,-155 563.5,-155 563.5,-155 557.5,-155 551.5,-149 551.5,-143 551.5,-143 551.5,-111 551.5,-111 551.5,-105 557.5,-99 563.5,-99 563.5,-99 755.5,-99 755.5,-99 761.5,-99 767.5,-105 767.5,-111 767.5,-111 767.5,-143 767.5,-143 767.5,-149 761.5,-155 755.5,-155"/>
<text text-anchor="middle" x="659.5" y="-142.2" font-family="Helvetica,sans-Serif" font-size="11.00">bidirectional_adjacency_list&lt;G&gt;</text>
<text text-anchor="middle" x="659.5" y="-130.2" font-family="Helvetica,sans-Serif" font-size="11.00">adjacency_list&lt;G&gt;</text>
<text text-anchor="middle" x="659.5" y="-118.2" font-family="Helvetica,sans-Serif" font-size="11.00">in_edges(g, u) → in_edge_range&lt;G&gt;</text>
<text text-anchor="middle" x="659.5" y="-106.2" font-family="Helvetica,sans-Serif" font-size="11.00">source_id(g, ie) → vertex_id_t&lt;G&gt;</text>
</g>
<!-- in_edge_range&#45;&gt;bidirectional_adjacency_list -->
<g id="edge11" class="edge">
<title>in_edge_range&#45;&gt;bidirectional_adjacency_list</title>
<path fill="none" stroke="black" d="M897.7,-278.64C918.43,-256.95 942.79,-223.07 923.5,-198 913.93,-185.56 843.59,-167.25 777.93,-152.48"/>
<polygon fill="black" stroke="black" points="778.38,-149 767.86,-150.23 776.86,-155.83 778.38,-149"/>
</g>
<!-- index_vertex_range -->
<g id="node7" class="node">
<title>index_vertex_range</title>
<path fill="#fff3cd" stroke="black" d="M253,-155C253,-155 12,-155 12,-155 6,-155 0,-149 0,-143 0,-143 0,-111 0,-111 0,-105 6,-99 12,-99 12,-99 253,-99 253,-99 259,-99 265,-105 265,-111 265,-111 265,-143 265,-143 265,-149 259,-155 253,-155"/>
<text text-anchor="middle" x="132.5" y="-142.2" font-family="Helvetica,sans-Serif" font-size="11.00">index_vertex_range&lt;G&gt;</text>
<text text-anchor="middle" x="132.5" y="-130.2" font-family="Helvetica,sans-Serif" font-size="11.00">integral&lt;vertex_id_t&lt;G&gt;&gt;</text>
<text text-anchor="middle" x="132.5" y="-118.2" font-family="Helvetica,sans-Serif" font-size="11.00">integral&lt;vertex_range_t&lt;G&gt;::storage_type&gt;</text>
<text text-anchor="middle" x="132.5" y="-106.2" font-family="Helvetica,sans-Serif" font-size="11.00">vertices(g) → vertex_range&lt;G&gt;</text>
</g>
<!-- vertex_range&#45;&gt;index_vertex_range -->
<g id="edge4" class="edge">
<title>vertex_range&#45;&gt;index_vertex_range</title>
<path fill="none" stroke="black" d="M416.77,-278.91C360.69,-249.14 257.87,-194.55 192.46,-159.83"/>
<polygon fill="black" stroke="black" points="193.97,-156.67 183.49,-155.07 190.68,-162.85 193.97,-156.67"/>
</g>
<!-- vertex_range&#45;&gt;mapped_vertex_range -->
<g id="edge5" class="edge">
<title>vertex_range&#45;&gt;mapped_vertex_range</title>
<path fill="none" stroke="black" stroke-dasharray="5,2" d="M570.05,-280.17C612.68,-270.96 661.07,-258.36 703.5,-242 755.37,-222 810.28,-191.07 850.35,-166.47"/>
<polygon fill="black" stroke="black" points="852.26,-169.4 858.92,-161.16 848.58,-163.45 852.26,-169.4"/>
<text text-anchor="middle" x="846" y="-217.8" font-family="Helvetica,sans-Serif" font-size="9.00"> &#160;!index_vertex_range</text>
</g>
<!-- vertex_range&#45;&gt;adjacency_list -->
<g id="edge8" class="edge">
<title>vertex_range&#45;&gt;adjacency_list</title>
<path fill="none" stroke="black" d="M489.19,-278.83C503.96,-269.27 521.58,-257.86 537.24,-247.72"/>
<polygon fill="black" stroke="black" points="539.22,-250.6 545.72,-242.23 535.42,-244.73 539.22,-250.6"/>
</g>
<!-- index_adjacency_list -->
<g id="node12" class="node">
<title>index_adjacency_list</title>
<path fill="#e2d9f3" stroke="black" d="M331,-50C331,-50 192,-50 192,-50 186,-50 180,-44 180,-38 180,-38 180,-18 180,-18 180,-12 186,-6 192,-6 192,-6 331,-6 331,-6 337,-6 343,-12 343,-18 343,-18 343,-38 343,-38 343,-44 337,-50 331,-50"/>
<text text-anchor="middle" x="261.5" y="-37.2" font-family="Helvetica,sans-Serif" font-size="11.00">index_adjacency_list&lt;G&gt;</text>
<text text-anchor="middle" x="261.5" y="-25.2" font-family="Helvetica,sans-Serif" font-size="11.00">adjacency_list&lt;G&gt;</text>
<text text-anchor="middle" x="261.5" y="-13.2" font-family="Helvetica,sans-Serif" font-size="11.00">∧ index_vertex_range&lt;G&gt;</text>
</g>
<!-- index_vertex_range&#45;&gt;index_adjacency_list -->
<g id="edge13" class="edge">
<title>index_vertex_range&#45;&gt;index_adjacency_list</title>
<path fill="none" stroke="black" d="M167.11,-98.8C177.47,-90.74 188.9,-81.96 199.5,-74 207.32,-68.13 215.75,-61.93 223.81,-56.06"/>
<polygon fill="black" stroke="black" points="225.99,-58.8 232.03,-50.1 221.88,-53.14 225.99,-58.8"/>
</g>
<!-- index_bidirectional_adjacency_list -->
<g id="node14" class="node">
<title>index_bidirectional_adjacency_list</title>
<path fill="#e2d9f3" stroke="black" d="M546,-56C546,-56 377,-56 377,-56 371,-56 365,-50 365,-44 365,-44 365,-12 365,-12 365,-6 371,0 377,0 377,0 546,0 546,0 552,0 558,-6 558,-12 558,-12 558,-44 558,-44 558,-50 552,-56 546,-56"/>
<text text-anchor="middle" x="461.5" y="-43.2" font-family="Helvetica,sans-Serif" font-size="11.00">index_bidirectional</text>
<text text-anchor="middle" x="461.5" y="-31.2" font-family="Helvetica,sans-Serif" font-size="11.00">_adjacency_list&lt;G&gt;</text>
<text text-anchor="middle" x="461.5" y="-19.2" font-family="Helvetica,sans-Serif" font-size="11.00">bidirectional_adjacency_list&lt;G&gt;</text>
<text text-anchor="middle" x="461.5" y="-7.2" font-family="Helvetica,sans-Serif" font-size="11.00">∧ index_vertex_range&lt;G&gt;</text>
</g>
<!-- index_vertex_range&#45;&gt;index_bidirectional_adjacency_list -->
<g id="edge17" class="edge">
<title>index_vertex_range&#45;&gt;index_bidirectional_adjacency_list</title>
<path fill="none" stroke="black" d="M224.14,-98.98C266.39,-86.52 316.67,-71.7 360.06,-58.91"/>
<polygon fill="black" stroke="black" points="361.17,-62.23 369.78,-56.04 359.19,-55.51 361.17,-62.23"/>
</g>
<!-- mapped_adjacency_list -->
<g id="node13" class="node">
<title>mapped_adjacency_list</title>
<path fill="#e2d9f3" stroke="black" d="M977,-50C977,-50 824,-50 824,-50 818,-50 812,-44 812,-38 812,-38 812,-18 812,-18 812,-12 818,-6 824,-6 824,-6 977,-6 977,-6 983,-6 989,-12 989,-18 989,-18 989,-38 989,-38 989,-44 983,-50 977,-50"/>
<text text-anchor="middle" x="900.5" y="-37.2" font-family="Helvetica,sans-Serif" font-size="11.00">mapped_adjacency_list&lt;G&gt;</text>
<text text-anchor="middle" x="900.5" y="-25.2" font-family="Helvetica,sans-Serif" font-size="11.00">adjacency_list&lt;G&gt;</text>
<text text-anchor="middle" x="900.5" y="-13.2" font-family="Helvetica,sans-Serif" font-size="11.00">∧ mapped_vertex_range&lt;G&gt;</text>
</g>
<!-- mapped_vertex_range&#45;&gt;mapped_adjacency_list -->
<g id="edge15" class="edge">
<title>mapped_vertex_range&#45;&gt;mapped_adjacency_list</title>
<path fill="none" stroke="black" d="M906.43,-92.89C905.44,-82.27 904.36,-70.55 903.38,-60.08"/>
<polygon fill="black" stroke="black" points="906.87,-59.75 902.46,-50.12 899.9,-60.4 906.87,-59.75"/>
</g>
<!-- mapped_bidirectional_adjacency_list -->
<g id="node15" class="node">
<title>mapped_bidirectional_adjacency_list</title>
<path fill="#e2d9f3" stroke="black" d="M759,-56C759,-56 590,-56 590,-56 584,-56 578,-50 578,-44 578,-44 578,-12 578,-12 578,-6 584,0 590,0 590,0 759,0 759,0 765,0 771,-6 771,-12 771,-12 771,-44 771,-44 771,-50 765,-56 759,-56"/>
<text text-anchor="middle" x="674.5" y="-43.2" font-family="Helvetica,sans-Serif" font-size="11.00">mapped_bidirectional</text>
<text text-anchor="middle" x="674.5" y="-31.2" font-family="Helvetica,sans-Serif" font-size="11.00">_adjacency_list&lt;G&gt;</text>
<text text-anchor="middle" x="674.5" y="-19.2" font-family="Helvetica,sans-Serif" font-size="11.00">bidirectional_adjacency_list&lt;G&gt;</text>
<text text-anchor="middle" x="674.5" y="-7.2" font-family="Helvetica,sans-Serif" font-size="11.00">∧ mapped_vertex_range&lt;G&gt;</text>
</g>
<!-- mapped_vertex_range&#45;&gt;mapped_bidirectional_adjacency_list -->
<g id="edge19" class="edge">
<title>mapped_vertex_range&#45;&gt;mapped_bidirectional_adjacency_list</title>
<path fill="none" stroke="black" d="M829.28,-92.89C803.35,-82.18 774.71,-70.36 749.19,-59.83"/>
<polygon fill="black" stroke="black" points="750.52,-56.59 739.94,-56.01 747.85,-63.06 750.52,-56.59"/>
</g>
<!-- ordered_vertex_edges -->
<g id="node10" class="node">
<title>ordered_vertex_edges</title>
<path fill="#f8d7da" stroke="black" d="M521.5,-155C521.5,-155 333.5,-155 333.5,-155 327.5,-155 321.5,-149 321.5,-143 321.5,-143 321.5,-111 321.5,-111 321.5,-105 327.5,-99 333.5,-99 333.5,-99 521.5,-99 521.5,-99 527.5,-99 533.5,-105 533.5,-111 533.5,-111 533.5,-143 533.5,-143 533.5,-149 527.5,-155 521.5,-155"/>
<text text-anchor="middle" x="427.5" y="-142.2" font-family="Helvetica,sans-Serif" font-size="11.00">ordered_vertex_edges&lt;G&gt;</text>
<text text-anchor="middle" x="427.5" y="-130.2" font-family="Helvetica,sans-Serif" font-size="11.00">adjacency_list&lt;G&gt;</text>
<text text-anchor="middle" x="427.5" y="-118.2" font-family="Helvetica,sans-Serif" font-size="11.00">forward_iterator on out_edges(g, u)</text>
<text text-anchor="middle" x="427.5" y="-106.2" font-family="Helvetica,sans-Serif" font-size="11.00">(edges sorted by target_id)</text>
</g>
<!-- adjacency_list&#45;&gt;ordered_vertex_edges -->
<g id="edge9" class="edge">
<title>adjacency_list&#45;&gt;ordered_vertex_edges</title>
<path fill="none" stroke="black" d="M543.48,-197.89C524.95,-186.73 501.81,-172.78 481.09,-160.29"/>
<polygon fill="black" stroke="black" points="482.74,-157.21 472.37,-155.04 479.13,-163.2 482.74,-157.21"/>
</g>
<!-- adjacency_list&#45;&gt;bidirectional_adjacency_list -->
<g id="edge10" class="edge">
<title>adjacency_list&#45;&gt;bidirectional_adjacency_list</title>
<path fill="none" stroke="black" d="M597.29,-197.89C606.56,-187.47 618,-174.62 628.53,-162.8"/>
<polygon fill="black" stroke="black" points="631.25,-165.01 635.28,-155.21 626.02,-160.35 631.25,-165.01"/>
</g>
<!-- adjacency_list&#45;&gt;index_adjacency_list -->
<g id="edge12" class="edge">
<title>adjacency_list&#45;&gt;index_adjacency_list</title>
<path fill="none" stroke="black" d="M461.66,-204.59C401.19,-195.01 335.34,-180.57 312.5,-161 296.75,-147.51 279.59,-94.4 269.73,-59.8"/>
<polygon fill="black" stroke="black" points="273.1,-58.83 267.04,-50.15 266.36,-60.72 273.1,-58.83"/>
</g>
<!-- adjacency_list&#45;&gt;mapped_adjacency_list -->
<g id="edge14" class="edge">
<title>adjacency_list&#45;&gt;mapped_adjacency_list</title>
<path fill="none" stroke="black" d="M695.19,-200.88C723.92,-192.3 753.11,-179.65 776.5,-161 803.57,-139.42 791.66,-119.02 814.5,-93 826.71,-79.08 842.42,-66.32 857.06,-55.91"/>
<polygon fill="black" stroke="black" points="859.29,-58.63 865.52,-50.07 855.31,-52.87 859.29,-58.63"/>
</g>
<!-- bidirectional_adjacency_list&#45;&gt;index_bidirectional_adjacency_list -->
<g id="edge16" class="edge">
<title>bidirectional_adjacency_list&#45;&gt;index_bidirectional_adjacency_list</title>
<path fill="none" stroke="black" d="M604.35,-98.98C579.99,-87.05 551.19,-72.94 525.86,-60.53"/>
<polygon fill="black" stroke="black" points="527.22,-57.3 516.7,-56.04 524.14,-63.59 527.22,-57.3"/>
</g>
<!-- bidirectional_adjacency_list&#45;&gt;mapped_bidirectional_adjacency_list -->
<g id="edge18" class="edge">
<title>bidirectional_adjacency_list&#45;&gt;mapped_bidirectional_adjacency_list</title>
<path fill="none" stroke="black" d="M663.68,-98.98C665.24,-88.87 667.05,-77.2 668.73,-66.32"/>
<polygon fill="black" stroke="black" points="672.22,-66.63 670.29,-56.21 665.3,-65.56 672.22,-66.63"/>
</g>
</g>
</svg>
