<?xml version="1.0" encoding="UTF-8" standalone="no"?>
<!DOCTYPE svg PUBLIC "-//W3C//DTD SVG 1.1//EN"
 "http://www.w3.org/Graphics/SVG/1.1/DTD/svg11.dtd">
<!-- Generated by graphviz version 2.43.0 (0)
 -->
<!-- Title: ConceptHierarchy Pages: 1 -->
<svg width="1317pt" height="493pt"
 viewBox="0.00 0.00 1317.00 493.00" xmlns="http://www.w3.org/2000/svg" xmlns:xlink="http://www.w3.org/1999/xlink">
<g id="graph0" class="graph" transform="scale(1 1) rotate(0) translate(4 489)">
<title>ConceptHierarchy</title>
<polygon fill="white" stroke="transparent" points="-4,4 -4,-489 1313,-489 1313,4 -4,4"/>
<!-- basic_edge_c -->
<g id="node1" class="node">
<title>basic_edge_c</title>
<path fill="#cce5ff" stroke="black" d="M829.5,-485C829.5,-485 710.5,-485 710.5,-485 704.5,-485 698.5,-479 698.5,-473 698.5,-473 698.5,-441 698.5,-441 698.5,-435 704.5,-429 710.5,-429 710.5,-429 829.5,-429 829.5,-429 835.5,-429 841.5,-435 841.5,-441 841.5,-441 841.5,-473 841.5,-473 841.5,-479 835.5,-485 829.5,-485"/>
<text text-anchor="middle" x="770" y="-472.2" font-family="Helvetica,sans-Serif" font-size="11.00">basic_edge&lt;G,E&gt;</text>
<text text-anchor="middle" x="770" y="-460.2" font-family="Helvetica,sans-Serif" font-size="11.00">source_id(g, e)</text>
<text text-anchor="middle" x="770" y="-448.2" font-family="Helvetica,sans-Serif" font-size="11.00">target_id(g, e)</text>
<text text-anchor="middle" x="770" y="-436.2" font-family="Helvetica,sans-Serif" font-size="11.00">(shared with edge_list)</text>
</g>
<!-- edge_c -->
<g id="node2" class="node">
<title>edge_c</title>
<path fill="#cce5ff" stroke="black" d="M815,-392C815,-392 725,-392 725,-392 719,-392 713,-386 713,-380 713,-380 713,-348 713,-348 713,-342 719,-336 725,-336 725,-336 815,-336 815,-336 821,-336 827,-342 827,-348 827,-348 827,-380 827,-380 827,-386 821,-392 815,-392"/>
<text text-anchor="middle" x="770" y="-379.2" font-family="Helvetica,sans-Serif" font-size="11.00">edge&lt;G,E&gt;</text>
<text text-anchor="middle" x="770" y="-367.2" font-family="Helvetica,sans-Serif" font-size="11.00">basic_edge&lt;G,E&gt;</text>
<text text-anchor="middle" x="770" y="-355.2" font-family="Helvetica,sans-Serif" font-size="11.00">source(g, e)</text>
<text text-anchor="middle" x="770" y="-343.2" font-family="Helvetica,sans-Serif" font-size="11.00">target(g, e)</text>
</g>
<!-- basic_edge_c&#45;&gt;edge_c -->
<g id="edge1" class="edge">
<title>basic_edge_c&#45;&gt;edge_c</title>
<path fill="none" stroke="black" d="M770,-428.7C770,-420.42 770,-411.18 770,-402.36"/>
<polygon fill="black" stroke="black" points="773.5,-402.28 770,-392.28 766.5,-402.28 773.5,-402.28"/>
</g>
<!-- out_edge_range -->
<g id="node5" class="node">
<title>out_edge_range</title>
<path fill="#d4edda" stroke="black" d="M793.5,-299C793.5,-299 638.5,-299 638.5,-299 632.5,-299 626.5,-293 626.5,-287 626.5,-287 626.5,-267 626.5,-267 626.5,-261 632.5,-255 638.5,-255 638.5,-255 793.5,-255 793.5,-255 799.5,-255 805.5,-261 805.5,-267 805.5,-267 805.5,-287 805.5,-287 805.5,-293 799.5,-299 793.5,-299"/>
<text text-anchor="middle" x="716" y="-286.2" font-family="Helvetica,sans-Serif" font-size="11.00">out_edge_range&lt;R,G&gt;</text>
<text text-anchor="middle" x="716" y="-274.2" font-family="Helvetica,sans-Serif" font-size="11.00">forward_range&lt;R&gt;</text>
<text text-anchor="middle" x="716" y="-262.2" font-family="Helvetica,sans-Serif" font-size="11.00">edge&lt;G, range_value_t&lt;R&gt;&gt;</text>
</g>
<!-- edge_c&#45;&gt;out_edge_range -->
<g id="edge2" class="edge">
<title>edge_c&#45;&gt;out_edge_range</title>
<path fill="none" stroke="black" d="M752.62,-335.64C746.97,-326.76 740.69,-316.86 734.94,-307.81"/>
<polygon fill="black" stroke="black" points="737.73,-305.67 729.41,-299.11 731.82,-309.43 737.73,-305.67"/>
</g>
<!-- in_edge_range -->
<g id="node6" class="node">
<title>in_edge_range</title>
<path fill="#d4edda" stroke="black" d="M990.5,-299C990.5,-299 835.5,-299 835.5,-299 829.5,-299 823.5,-293 823.5,-287 823.5,-287 823.5,-267 823.5,-267 823.5,-261 829.5,-255 835.5,-255 835.5,-255 990.5,-255 990.5,-255 996.5,-255 1002.5,-261 1002.5,-267 1002.5,-267 1002.5,-287 1002.5,-287 1002.5,-293 996.5,-299 990.5,-299"/>
<text text-anchor="middle" x="913" y="-286.2" font-family="Helvetica,sans-Serif" font-size="11.00">in_edge_range&lt;R,G&gt;</text>
<text text-anchor="middle" x="913" y="-274.2" font-family="Helvetica,sans-Serif" font-size="11.00">forward_range&lt;R&gt;</text>
<text text-anchor="middle" x="913" y="-262.2" font-family="Helvetica,sans-Serif" font-size="11.00">edge&lt;G, range_value_t&lt;R&gt;&gt;</text>
</g>
<!-- edge_c&#45;&gt;in_edge_range -->
<g id="edge3" class="edge">
<title>edge_c&#45;&gt;in_edge_range</title>
<path fill="none" stroke="black" d="M815.64,-335.87C832.47,-325.87 851.5,-314.55 868.25,-304.6"/>
<polygon fill="black" stroke="black" points="870.48,-307.34 877.29,-299.22 866.91,-301.33 870.48,-307.34"/>
</g>
<!-- vertex_c -->
<g id="node3" class="node">
<title>vertex_c</title>
<path fill="#cce5ff" stroke="black" d="M565.5,-485C565.5,-485 424.5,-485 424.5,-485 418.5,-485 412.5,-479 412.5,-473 412.5,-473 412.5,-441 412.5,-441 412.5,-435 418.5,-429 424.5,-429 424.5,-429 565.5,-429 565.5,-429 571.5,-429 577.5,-435 577.5,-441 577.5,-441 577.5,-473 577.5,-473 577.5,-479 571.5,-485 565.5,-485"/>
<text text-anchor="middle" x="495" y="-472.2" font-family="Helvetica,sans-Serif" font-size="11.00">vertex&lt;G,V&gt;</text>
<text text-anchor="middle" x="495" y="-460.2" font-family="Helvetica,sans-Serif" font-size="11.00">is_vertex_descriptor_v&lt;V&gt;</text>
<text text-anchor="middle" x="495" y="-448.2" font-family="Helvetica,sans-Serif" font-size="11.00">vertex_id(g, u)</text>
<text text-anchor="middle" x="495" y="-436.2" font-family="Helvetica,sans-Serif" font-size="11.00">find_vertex(g, uid)</text>
</g>
<!-- vertex_range -->
<g id="node7" class="node">
<title>vertex_range</title>
<path fill="#d4edda" stroke="black" d="M596.5,-299C596.5,-299 393.5,-299 393.5,-299 387.5,-299 381.5,-293 381.5,-287 381.5,-287 381.5,-267 381.5,-267 381.5,-261 387.5,-255 393.5,-255 393.5,-255 596.5,-255 596.5,-255 602.5,-255 608.5,-261 608.5,-267 608.5,-267 608.5,-287 608.5,-287 608.5,-293 602.5,-299 596.5,-299"/>
<text text-anchor="middle" x="495" y="-286.2" font-family="Helvetica,sans-Serif" font-size="11.00">vertex_range&lt;R,G&gt;</text>
<text text-anchor="middle" x="495" y="-274.2" font-family="Helvetica,sans-Serif" font-size="11.00">forward_range&lt;R&gt; ∧ sized_range&lt;R&gt;</text>
<text text-anchor="middle" x="495" y="-262.2" font-family="Helvetica,sans-Serif" font-size="11.00">vertex&lt;G, range_value_t&lt;R&gt;&gt;</text>
</g>
<!-- vertex_c&#45;&gt;vertex_range -->
<g id="edge4" class="edge">
<title>vertex_c&#45;&gt;vertex_range</title>
<path fill="none" stroke="black" d="M495,-428.97C495,-396.85 495,-343.35 495,-309.42"/>
<polygon fill="black" stroke="black" points="498.5,-309.14 495,-299.14 491.5,-309.14 498.5,-309.14"/>
</g>
<!-- hashable_vertex_id -->
<g id="node4" class="node">
<title>hashable_vertex_id</title>
<path fill="#cce5ff" stroke="black" d="M1136.5,-475C1136.5,-475 925.5,-475 925.5,-475 919.5,-475 913.5,-469 913.5,-463 913.5,-463 913.5,-451 913.5,-451 913.5,-445 919.5,-439 925.5,-439 925.5,-439 1136.5,-439 1136.5,-439 1142.5,-439 1148.5,-445 1148.5,-451 1148.5,-451 1148.5,-463 1148.5,-463 1148.5,-469 1142.5,-475 1136.5,-475"/>
<text text-anchor="middle" x="1031" y="-460.2" font-family="Helvetica,sans-Serif" font-size="11.00">hashable_vertex_id&lt;G&gt;</text>
<text text-anchor="middle" x="1031" y="-448.2" font-family="Helvetica,sans-Serif" font-size="11.00">hash&lt;vertex_id_t&lt;G&gt;&gt;{}(uid) → size_t</text>
</g>
<!-- mapped_vertex_range -->
<g id="node9" class="node">
<title>mapped_vertex_range</title>
<path fill="#fff3cd" stroke="black" d="M1050.5,-137C1050.5,-137 909.5,-137 909.5,-137 903.5,-137 897.5,-131 897.5,-125 897.5,-125 897.5,-93 897.5,-93 897.5,-87 903.5,-81 909.5,-81 909.5,-81 1050.5,-81 1050.5,-81 1056.5,-81 1062.5,-87 1062.5,-93 1062.5,-93 1062.5,-125 1062.5,-125 1062.5,-131 1056.5,-137 1050.5,-137"/>
<text text-anchor="middle" x="980" y="-124.2" font-family="Helvetica,sans-Serif" font-size="11.00">mapped_vertex_range&lt;G&gt;</text>
<text text-anchor="middle" x="980" y="-112.2" font-family="Helvetica,sans-Serif" font-size="11.00">¬index_vertex_range&lt;G&gt;</text>
<text text-anchor="middle" x="980" y="-100.2" font-family="Helvetica,sans-Serif" font-size="11.00">hashable_vertex_id&lt;G&gt;</text>
<text text-anchor="middle" x="980" y="-88.2" font-family="Helvetica,sans-Serif" font-size="11.00">find_vertex(g, uid)</text>
</g>
<!-- hashable_vertex_id&#45;&gt;mapped_vertex_range -->
<g id="edge7" class="edge">
<title>hashable_vertex_id&#45;&gt;mapped_vertex_range</title>
<path fill="none" stroke="black" d="M1031,-438.89C1031,-420.6 1031,-390.75 1031,-365 1031,-365 1031,-365 1031,-195 1031,-177.02 1022.5,-159.55 1012.45,-145.18"/>
<polygon fill="black" stroke="black" points="1015.19,-143.01 1006.4,-137.09 1009.58,-147.2 1015.19,-143.01"/>
</g>
<!-- adjacency_list -->
<g id="node10" class="node">
<title>adjacency_list</title>
<path fill="#f8d7da" stroke="black" d="M715.5,-218C715.5,-218 506.5,-218 506.5,-218 500.5,-218 494.5,-212 494.5,-206 494.5,-206 494.5,-186 494.5,-186 494.5,-180 500.5,-174 506.5,-174 506.5,-174 715.5,-174 715.5,-174 721.5,-174 727.5,-180 727.5,-186 727.5,-186 727.5,-206 727.5,-206 727.5,-212 721.5,-218 715.5,-218"/>
<text text-anchor="middle" x="611" y="-205.2" font-family="Helvetica,sans-Serif" font-size="11.00">adjacency_list&lt;G&gt;</text>
<text text-anchor="middle" x="611" y="-193.2" font-family="Helvetica,sans-Serif" font-size="11.00">vertices(g) → vertex_range&lt;G&gt;</text>
<text text-anchor="middle" x="611" y="-181.2" font-family="Helvetica,sans-Serif" font-size="11.00">out_edges(g, u) → out_edge_range&lt;G&gt;</text>
</g>
<!-- out_edge_range&#45;&gt;adjacency_list -->
<g id="edge8" class="edge">
<title>out_edge_range&#45;&gt;adjacency_list</title>
<path fill="none" stroke="black" d="M687.86,-254.83C675.39,-245.44 660.55,-234.28 647.26,-224.28"/>
<polygon fill="black" stroke="black" points="649.31,-221.44 639.22,-218.23 645.1,-227.04 649.31,-221.44"/>
</g>
<!-- bidirectional_adjacency_list -->
<g id="node12" class="node">
<title>bidirectional_adjacency_list</title>
<path fill="#f8d7da" stroke="black" d="M761,-131C761,-131 569,-131 569,-131 563,-131 557,-125 557,-119 557,-119 557,-99 557,-99 557,-93 563,-87 569,-87 569,-87 761,-87 761,-87 767,-87 773,-93 773,-99 773,-99 773,-119 773,-119 773,-125 767,-131 761,-131"/>
<text text-anchor="middle" x="665" y="-118.2" font-family="Helvetica,sans-Serif" font-size="11.00">bidirectional_adjacency_list&lt;G&gt;</text>
<text text-anchor="middle" x="665" y="-106.2" font-family="Helvetica,sans-Serif" font-size="11.00">adjacency_list&lt;G&gt;</text>
<text text-anchor="middle" x="665" y="-94.2" font-family="Helvetica,sans-Serif" font-size="11.00">in_edges(g, u) → in_edge_range&lt;G&gt;</text>
</g>
<!-- in_edge_range&#45;&gt;bidirectional_adjacency_list -->
<g id="edge12" class="edge">
<title>in_edge_range&#45;&gt;bidirectional_adjacency_list</title>
<path fill="none" stroke="black" d="M924.76,-254.9C935.5,-232.47 947.17,-197.11 929,-174 910.39,-150.34 844.71,-134.37 783.52,-124.29"/>
<polygon fill="black" stroke="black" points="783.78,-120.79 773.35,-122.66 782.67,-127.7 783.78,-120.79"/>
</g>
<!-- index_vertex_range -->
<g id="node8" class="node">
<title>index_vertex_range</title>
<path fill="#fff3cd" stroke="black" d="M258.5,-131C258.5,-131 17.5,-131 17.5,-131 11.5,-131 5.5,-125 5.5,-119 5.5,-119 5.5,-99 5.5,-99 5.5,-93 11.5,-87 17.5,-87 17.5,-87 258.5,-87 258.5,-87 264.5,-87 270.5,-93 270.5,-99 270.5,-99 270.5,-119 270.5,-119 270.5,-125 264.5,-131 258.5,-131"/>
<text text-anchor="middle" x="138" y="-118.2" font-family="Helvetica,sans-Serif" font-size="11.00">index_vertex_range&lt;G&gt;</text>
<text text-anchor="middle" x="138" y="-106.2" font-family="Helvetica,sans-Serif" font-size="11.00">integral&lt;vertex_id_t&lt;G&gt;&gt;</text>
<text text-anchor="middle" x="138" y="-94.2" font-family="Helvetica,sans-Serif" font-size="11.00">integral&lt;vertex_range_t&lt;G&gt;::storage_type&gt;</text>
</g>
<!-- vertex_range&#45;&gt;index_vertex_range -->
<g id="edge5" class="edge">
<title>vertex_range&#45;&gt;index_vertex_range</title>
<path fill="none" stroke="black" d="M449.79,-254.98C384.25,-224.5 263.01,-168.13 192.58,-135.38"/>
<polygon fill="black" stroke="black" points="193.95,-132.16 183.41,-131.11 191,-138.5 193.95,-132.16"/>
</g>
<!-- vertex_range&#45;&gt;mapped_vertex_range -->
<g id="edge6" class="edge">
<title>vertex_range&#45;&gt;mapped_vertex_range</title>
<path fill="none" stroke="black" stroke-dasharray="5,2" d="M600.56,-254.93C643.13,-245.32 692.38,-232.77 736,-218 799.28,-196.58 868.69,-165.02 917.25,-141.54"/>
<polygon fill="black" stroke="black" points="918.9,-144.63 926.37,-137.11 915.84,-138.33 918.9,-144.63"/>
<text text-anchor="middle" x="895.5" y="-193.8" font-family="Helvetica,sans-Serif" font-size="9.00"> &#160;!index_vertex_range</text>
</g>
<!-- vertex_range&#45;&gt;adjacency_list -->
<g id="edge9" class="edge">
<title>vertex_range&#45;&gt;adjacency_list</title>
<path fill="none" stroke="black" d="M526.09,-254.83C540,-245.35 556.57,-234.07 571.36,-224"/>
<polygon fill="black" stroke="black" points="573.53,-226.75 579.83,-218.23 569.59,-220.97 573.53,-226.75"/>
</g>
<!-- index_adjacency_list -->
<g id="node13" class="node">
<title>index_adjacency_list</title>
<path fill="#e2d9f3" stroke="black" d="M258,-40C258,-40 12,-40 12,-40 6,-40 0,-34 0,-28 0,-28 0,-16 0,-16 0,-10 6,-4 12,-4 12,-4 258,-4 258,-4 264,-4 270,-10 270,-16 270,-16 270,-28 270,-28 270,-34 264,-40 258,-40"/>
<text text-anchor="middle" x="135" y="-25.2" font-family="Helvetica,sans-Serif" font-size="11.00">index_adjacency_list&lt;G&gt;</text>
<text text-anchor="middle" x="135" y="-13.2" font-family="Helvetica,sans-Serif" font-size="11.00">adjacency_list&lt;G&gt; ∧ index_vertex_range&lt;G&gt;</text>
</g>
<!-- index_vertex_range&#45;&gt;index_adjacency_list -->
<g id="edge14" class="edge">
<title>index_vertex_range&#45;&gt;index_adjacency_list</title>
<path fill="none" stroke="black" d="M137.26,-86.99C136.87,-75.92 136.38,-62.22 135.96,-50.34"/>
<polygon fill="black" stroke="black" points="139.45,-49.93 135.6,-40.06 132.46,-50.18 139.45,-49.93"/>
</g>
<!-- index_bidirectional_adjacency_list -->
<g id="node15" class="node">
<title>index_bidirectional_adjacency_list</title>
<path fill="#e2d9f3" stroke="black" d="M619.5,-44C619.5,-44 300.5,-44 300.5,-44 294.5,-44 288.5,-38 288.5,-32 288.5,-32 288.5,-12 288.5,-12 288.5,-6 294.5,0 300.5,0 300.5,0 619.5,0 619.5,0 625.5,0 631.5,-6 631.5,-12 631.5,-12 631.5,-32 631.5,-32 631.5,-38 625.5,-44 619.5,-44"/>
<text text-anchor="middle" x="460" y="-31.2" font-family="Helvetica,sans-Serif" font-size="11.00">index_bidirectional</text>
<text text-anchor="middle" x="460" y="-19.2" font-family="Helvetica,sans-Serif" font-size="11.00">_adjacency_list&lt;G&gt;</text>
<text text-anchor="middle" x="460" y="-7.2" font-family="Helvetica,sans-Serif" font-size="11.00">bidirectional_adjacency_list&lt;G&gt; ∧ index_vertex_range&lt;G&gt;</text>
</g>
<!-- index_vertex_range&#45;&gt;index_bidirectional_adjacency_list -->
<g id="edge18" class="edge">
<title>index_vertex_range&#45;&gt;index_bidirectional_adjacency_list</title>
<path fill="none" stroke="black" d="M217.6,-86.99C263.94,-74.75 322.5,-59.3 370.45,-46.64"/>
<polygon fill="black" stroke="black" points="371.43,-50 380.2,-44.06 369.64,-43.23 371.43,-50"/>
</g>
<!-- mapped_adjacency_list -->
<g id="node14" class="node">
<title>mapped_adjacency_list</title>
<path fill="#e2d9f3" stroke="black" d="M1297,-40C1297,-40 1037,-40 1037,-40 1031,-40 1025,-34 1025,-28 1025,-28 1025,-16 1025,-16 1025,-10 1031,-4 1037,-4 1037,-4 1297,-4 1297,-4 1303,-4 1309,-10 1309,-16 1309,-16 1309,-28 1309,-28 1309,-34 1303,-40 1297,-40"/>
<text text-anchor="middle" x="1167" y="-25.2" font-family="Helvetica,sans-Serif" font-size="11.00">mapped_adjacency_list&lt;G&gt;</text>
<text text-anchor="middle" x="1167" y="-13.2" font-family="Helvetica,sans-Serif" font-size="11.00">adjacency_list&lt;G&gt; ∧ mapped_vertex_range&lt;G&gt;</text>
</g>
<!-- mapped_vertex_range&#45;&gt;mapped_adjacency_list -->
<g id="edge16" class="edge">
<title>mapped_vertex_range&#45;&gt;mapped_adjacency_list</title>
<path fill="none" stroke="black" d="M1039.42,-80.99C1065.48,-69.14 1095.63,-55.44 1120.08,-44.33"/>
<polygon fill="black" stroke="black" points="1121.83,-47.38 1129.49,-40.05 1118.93,-41 1121.83,-47.38"/>
</g>
<!-- mapped_bidirectional_adjacency_list -->
<g id="node16" class="node">
<title>mapped_bidirectional_adjacency_list</title>
<path fill="#e2d9f3" stroke="black" d="M994.5,-44C994.5,-44 661.5,-44 661.5,-44 655.5,-44 649.5,-38 649.5,-32 649.5,-32 649.5,-12 649.5,-12 649.5,-6 655.5,0 661.5,0 661.5,0 994.5,0 994.5,0 1000.5,0 1006.5,-6 1006.5,-12 1006.5,-12 1006.5,-32 1006.5,-32 1006.5,-38 1000.5,-44 994.5,-44"/>
<text text-anchor="middle" x="828" y="-31.2" font-family="Helvetica,sans-Serif" font-size="11.00">mapped_bidirectional</text>
<text text-anchor="middle" x="828" y="-19.2" font-family="Helvetica,sans-Serif" font-size="11.00">_adjacency_list&lt;G&gt;</text>
<text text-anchor="middle" x="828" y="-7.2" font-family="Helvetica,sans-Serif" font-size="11.00">bidirectional_adjacency_list&lt;G&gt; ∧ mapped_vertex_range&lt;G&gt;</text>
</g>
<!-- mapped_vertex_range&#45;&gt;mapped_bidirectional_adjacency_list -->
<g id="edge20" class="edge">
<title>mapped_vertex_range&#45;&gt;mapped_bidirectional_adjacency_list</title>
<path fill="none" stroke="black" d="M931.49,-80.87C913.44,-70.78 892.99,-59.34 875.07,-49.32"/>
<polygon fill="black" stroke="black" points="876.39,-46.05 865.95,-44.22 872.97,-52.16 876.39,-46.05"/>
</g>
<!-- ordered_vertex_edges -->
<g id="node11" class="node">
<title>ordered_vertex_edges</title>
<path fill="#f8d7da" stroke="black" d="M527,-131C527,-131 339,-131 339,-131 333,-131 327,-125 327,-119 327,-119 327,-99 327,-99 327,-93 333,-87 339,-87 339,-87 527,-87 527,-87 533,-87 539,-93 539,-99 539,-99 539,-119 539,-119 539,-125 533,-131 527,-131"/>
<text text-anchor="middle" x="433" y="-118.2" font-family="Helvetica,sans-Serif" font-size="11.00">ordered_vertex_edges&lt;G&gt;</text>
<text text-anchor="middle" x="433" y="-106.2" font-family="Helvetica,sans-Serif" font-size="11.00">adjacency_list&lt;G&gt;</text>
<text text-anchor="middle" x="433" y="-94.2" font-family="Helvetica,sans-Serif" font-size="11.00">out_edges(g, u) sorted by target_id</text>
</g>
<!-- adjacency_list&#45;&gt;ordered_vertex_edges -->
<g id="edge10" class="edge">
<title>adjacency_list&#45;&gt;ordered_vertex_edges</title>
<path fill="none" stroke="black" d="M567,-173.99C542.61,-162.34 512.1,-147.77 486.36,-135.48"/>
<polygon fill="black" stroke="black" points="487.64,-132.21 477.11,-131.06 484.63,-138.53 487.64,-132.21"/>
</g>
<!-- adjacency_list&#45;&gt;bidirectional_adjacency_list -->
<g id="edge11" class="edge">
<title>adjacency_list&#45;&gt;bidirectional_adjacency_list</title>
<path fill="none" stroke="black" d="M624.35,-173.99C630.9,-163.67 638.92,-151.06 646.09,-139.77"/>
<polygon fill="black" stroke="black" points="649.21,-141.38 651.62,-131.06 643.3,-137.63 649.21,-141.38"/>
</g>
<!-- adjacency_list&#45;&gt;index_adjacency_list -->
<g id="edge13" class="edge">
<title>adjacency_list&#45;&gt;index_adjacency_list</title>
<path fill="none" stroke="black" d="M494.22,-180.93C425.7,-170.95 347.03,-155.97 318,-137 292.61,-120.41 302.72,-99.9 279,-81 258.53,-64.69 232.87,-52.41 208.9,-43.45"/>
<polygon fill="black" stroke="black" points="210.06,-40.14 199.46,-40.05 207.69,-46.73 210.06,-40.14"/>
</g>
<!-- adjacency_list&#45;&gt;mapped_adjacency_list -->
<g id="edge15" class="edge">
<title>adjacency_list&#45;&gt;mapped_adjacency_list</title>
<path fill="none" stroke="black" d="M681.42,-173.9C712.66,-163.83 749.61,-150.95 782,-137 830.94,-115.93 837.87,-99.04 888,-81 936.01,-63.72 990.63,-50.95 1038.73,-41.86"/>
<polygon fill="black" stroke="black" points="1039.38,-45.3 1048.57,-40.03 1038.1,-38.41 1039.38,-45.3"/>
</g>
<!-- bidirectional_adjacency_list&#45;&gt;index_bidirectional_adjacency_list -->
<g id="edge17" class="edge">
<title>bidirectional_adjacency_list&#45;&gt;index_bidirectional_adjacency_list</title>
<path fill="none" stroke="black" d="M614.33,-86.99C585.87,-75.19 550.17,-60.39 520.29,-48"/>
<polygon fill="black" stroke="black" points="521.38,-44.66 510.8,-44.06 518.7,-51.13 521.38,-44.66"/>
</g>
<!-- bidirectional_adjacency_list&#45;&gt;mapped_bidirectional_adjacency_list -->
<g id="edge19" class="edge">
<title>bidirectional_adjacency_list&#45;&gt;mapped_bidirectional_adjacency_list</title>
<path fill="none" stroke="black" d="M705.29,-86.99C727.43,-75.44 755.07,-61.03 778.52,-48.8"/>
<polygon fill="black" stroke="black" points="780.36,-51.79 787.61,-44.06 777.12,-45.58 780.36,-51.79"/>
</g>
</g>
</svg>
