<?xml version="1.0" encoding="UTF-8" standalone="no"?>
<!DOCTYPE svg PUBLIC "-//W3C//DTD SVG 1.1//EN"
 "http://www.w3.org/Graphics/SVG/1.1/DTD/svg11.dtd">
<!-- Generated by graphviz version 2.43.0 (0)
 -->
<!-- Title: EdgeListConceptHierarchy Pages: 1 -->
<svg width="378pt" height="236pt"
 viewBox="0.00 0.00 378.00 236.00" xmlns="http://www.w3.org/2000/svg" xmlns:xlink="http://www.w3.org/1999/xlink">
<g id="graph0" class="graph" transform="scale(1 1) rotate(0) translate(4 232)">
<title>EdgeListConceptHierarchy</title>
<polygon fill="white" stroke="transparent" points="-4,4 -4,-232 374,-232 374,4 -4,4"/>
<!-- basic_edge -->
<g id="node1" class="node">
<title>basic_edge</title>
<path fill="#cce5ff" stroke="black" d="M255.5,-228C255.5,-228 147.5,-228 147.5,-228 141.5,-228 135.5,-222 135.5,-216 135.5,-216 135.5,-196 135.5,-196 135.5,-190 141.5,-184 147.5,-184 147.5,-184 255.5,-184 255.5,-184 261.5,-184 267.5,-190 267.5,-196 267.5,-196 267.5,-216 267.5,-216 267.5,-222 261.5,-228 255.5,-228"/>
<text text-anchor="middle" x="201.5" y="-215.2" font-family="Helvetica,sans-Serif" font-size="11.00">basic_edge&lt;EL,E&gt;</text>
<text text-anchor="middle" x="201.5" y="-203.2" font-family="Helvetica,sans-Serif" font-size="11.00">source_id · target_id</text>
<text text-anchor="middle" x="201.5" y="-191.2" font-family="Helvetica,sans-Serif" font-size="11.00">(shared with adj_list)</text>
</g>
<!-- basic_sourced_edgelist -->
<g id="node2" class="node">
<title>basic_sourced_edgelist</title>
<path fill="#cce5ff" stroke="black" d="M301,-148C301,-148 102,-148 102,-148 96,-148 90,-142 90,-136 90,-136 90,-104 90,-104 90,-98 96,-92 102,-92 102,-92 301,-92 301,-92 307,-92 313,-98 313,-104 313,-104 313,-136 313,-136 313,-142 307,-148 301,-148"/>
<text text-anchor="middle" x="201.5" y="-135.2" font-family="Helvetica,sans-Serif" font-size="11.00">basic_sourced_edgelist&lt;EL&gt;</text>
<text text-anchor="middle" x="201.5" y="-123.2" font-family="Helvetica,sans-Serif" font-size="11.00">input_range</text>
<text text-anchor="middle" x="201.5" y="-111.2" font-family="Helvetica,sans-Serif" font-size="11.00">!range&#45;of&#45;ranges</text>
<text text-anchor="middle" x="201.5" y="-99.2" font-family="Helvetica,sans-Serif" font-size="11.00">basic_edge&lt;EL, range_value_t&lt;EL&gt;&gt;</text>
</g>
<!-- basic_edge&#45;&gt;basic_sourced_edgelist -->
<g id="edge1" class="edge">
<title>basic_edge&#45;&gt;basic_sourced_edgelist</title>
<path fill="none" stroke="black" d="M201.5,-183.8C201.5,-176.05 201.5,-167.03 201.5,-158.28"/>
<polygon fill="black" stroke="black" points="205,-158.24 201.5,-148.24 198,-158.24 205,-158.24"/>
</g>
<!-- basic_sourced_index_edgelist -->
<g id="node3" class="node">
<title>basic_sourced_index_edgelist</title>
<path fill="#d4edda" stroke="black" d="M197,-56C197,-56 12,-56 12,-56 6,-56 0,-50 0,-44 0,-44 0,-12 0,-12 0,-6 6,0 12,0 12,0 197,0 197,0 203,0 209,-6 209,-12 209,-12 209,-44 209,-44 209,-50 203,-56 197,-56"/>
<text text-anchor="middle" x="104.5" y="-43.2" font-family="Helvetica,sans-Serif" font-size="11.00">basic_sourced_index_edgelist&lt;EL&gt;</text>
<text text-anchor="middle" x="104.5" y="-31.2" font-family="Helvetica,sans-Serif" font-size="11.00">basic_sourced_edgelist</text>
<text text-anchor="middle" x="104.5" y="-19.2" font-family="Helvetica,sans-Serif" font-size="11.00">+ integral source_id</text>
<text text-anchor="middle" x="104.5" y="-7.2" font-family="Helvetica,sans-Serif" font-size="11.00">+ integral target_id</text>
</g>
<!-- basic_sourced_edgelist&#45;&gt;basic_sourced_index_edgelist -->
<g id="edge2" class="edge">
<title>basic_sourced_edgelist&#45;&gt;basic_sourced_index_edgelist</title>
<path fill="none" stroke="black" d="M172.4,-92C162.61,-82.91 151.56,-72.66 141.26,-63.1"/>
<polygon fill="black" stroke="black" points="143.63,-60.53 133.92,-56.29 138.87,-65.66 143.63,-60.53"/>
</g>
<!-- has_edge_value -->
<g id="node4" class="node">
<title>has_edge_value</title>
<path fill="#d4edda" stroke="black" d="M358,-50C358,-50 239,-50 239,-50 233,-50 227,-44 227,-38 227,-38 227,-18 227,-18 227,-12 233,-6 239,-6 239,-6 358,-6 358,-6 364,-6 370,-12 370,-18 370,-18 370,-38 370,-38 370,-44 364,-50 358,-50"/>
<text text-anchor="middle" x="298.5" y="-37.2" font-family="Helvetica,sans-Serif" font-size="11.00">has_edge_value&lt;EL&gt;</text>
<text text-anchor="middle" x="298.5" y="-25.2" font-family="Helvetica,sans-Serif" font-size="11.00">basic_sourced_edgelist</text>
<text text-anchor="middle" x="298.5" y="-13.2" font-family="Helvetica,sans-Serif" font-size="11.00">+ edge_value(el, uv)</text>
</g>
<!-- basic_sourced_edgelist&#45;&gt;has_edge_value -->
<g id="edge3" class="edge">
<title>basic_sourced_edgelist&#45;&gt;has_edge_value</title>
<path fill="none" stroke="black" d="M230.6,-92C242.41,-81.04 256.06,-68.38 268.01,-57.29"/>
<polygon fill="black" stroke="black" points="270.63,-59.63 275.58,-50.27 265.87,-54.5 270.63,-59.63"/>
</g>
</g>
</svg>
