<?xml version="1.0" encoding="UTF-8" standalone="no"?>
<!DOCTYPE svg PUBLIC "-//W3C//DTD SVG 1.1//EN"
 "http://www.w3.org/Graphics/SVG/1.1/DTD/svg11.dtd">
<!-- Generated by graphviz version 2.50.0 (20211204.2007)
 -->
<!-- Title: EdgeListConceptHierarchy Pages: 1 -->
<svg width="350pt" height="168pt"
 viewBox="0.00 0.00 349.50 168.00" xmlns="http://www.w3.org/2000/svg" xmlns:xlink="http://www.w3.org/1999/xlink">
<g id="graph0" class="graph" transform="scale(1 1) rotate(0) translate(4 164)">
<title>EdgeListConceptHierarchy</title>
<polygon fill="white" stroke="transparent" points="-4,4 -4,-164 345.5,-164 345.5,4 -4,4"/>
<!-- basic_sourced_edgelist -->
<g id="node1" class="node">
<title>basic_sourced_edgelist</title>
<path fill="#cce5ff" stroke="black" d="M253,-160C253,-160 118,-160 118,-160 112,-160 106,-154 106,-148 106,-148 106,-104 106,-104 106,-98 112,-92 118,-92 118,-92 253,-92 253,-92 259,-92 265,-98 265,-104 265,-104 265,-148 265,-148 265,-154 259,-160 253,-160"/>
<text text-anchor="middle" x="185.5" y="-147.2" font-family="Helvetica,sans-Serif" font-size="11.00">basic_sourced_edgelist&lt;EL&gt;</text>
<text text-anchor="middle" x="185.5" y="-135.2" font-family="Helvetica,sans-Serif" font-size="11.00">input_range</text>
<text text-anchor="middle" x="185.5" y="-123.2" font-family="Helvetica,sans-Serif" font-size="11.00">!range&#45;of&#45;ranges</text>
<text text-anchor="middle" x="185.5" y="-111.2" font-family="Helvetica,sans-Serif" font-size="11.00">source_id · target_id</text>
<text text-anchor="middle" x="185.5" y="-99.2" font-family="Helvetica,sans-Serif" font-size="11.00">(compatible return types)</text>
</g>
<!-- basic_sourced_index_edgelist -->
<g id="node2" class="node">
<title>basic_sourced_index_edgelist</title>
<path fill="#d4edda" stroke="black" d="M179,-56C179,-56 12,-56 12,-56 6,-56 0,-50 0,-44 0,-44 0,-12 0,-12 0,-6 6,0 12,0 12,0 179,0 179,0 185,0 191,-6 191,-12 191,-12 191,-44 191,-44 191,-50 185,-56 179,-56"/>
<text text-anchor="middle" x="95.5" y="-43.2" font-family="Helvetica,sans-Serif" font-size="11.00">basic_sourced_index_edgelist&lt;EL&gt;</text>
<text text-anchor="middle" x="95.5" y="-31.2" font-family="Helvetica,sans-Serif" font-size="11.00">basic_sourced_edgelist</text>
<text text-anchor="middle" x="95.5" y="-19.2" font-family="Helvetica,sans-Serif" font-size="11.00">+ integral source_id</text>
<text text-anchor="middle" x="95.5" y="-7.2" font-family="Helvetica,sans-Serif" font-size="11.00">+ integral target_id</text>
</g>
<!-- basic_sourced_edgelist&#45;&gt;basic_sourced_index_edgelist -->
<g id="edge1" class="edge">
<title>basic_sourced_edgelist&#45;&gt;basic_sourced_index_edgelist</title>
<path fill="none" stroke="black" d="M154.53,-91.96C145.95,-82.81 136.61,-72.85 127.95,-63.61"/>
<polygon fill="black" stroke="black" points="130.25,-60.95 120.86,-56.05 125.15,-65.74 130.25,-60.95"/>
</g>
<!-- has_edge_value -->
<g id="node3" class="node">
<title>has_edge_value</title>
<path fill="#d4edda" stroke="black" d="M329.5,-50C329.5,-50 221.5,-50 221.5,-50 215.5,-50 209.5,-44 209.5,-38 209.5,-38 209.5,-18 209.5,-18 209.5,-12 215.5,-6 221.5,-6 221.5,-6 329.5,-6 329.5,-6 335.5,-6 341.5,-12 341.5,-18 341.5,-18 341.5,-38 341.5,-38 341.5,-44 335.5,-50 329.5,-50"/>
<text text-anchor="middle" x="275.5" y="-37.2" font-family="Helvetica,sans-Serif" font-size="11.00">has_edge_value&lt;EL&gt;</text>
<text text-anchor="middle" x="275.5" y="-25.2" font-family="Helvetica,sans-Serif" font-size="11.00">basic_sourced_edgelist</text>
<text text-anchor="middle" x="275.5" y="-13.2" font-family="Helvetica,sans-Serif" font-size="11.00">+ edge_value(el, uv)</text>
</g>
<!-- basic_sourced_edgelist&#45;&gt;has_edge_value -->
<g id="edge2" class="edge">
<title>basic_sourced_edgelist&#45;&gt;has_edge_value</title>
<path fill="none" stroke="black" d="M216.47,-91.96C226.95,-80.79 238.55,-68.41 248.67,-57.61"/>
<polygon fill="black" stroke="black" points="251.46,-59.76 255.75,-50.07 246.36,-54.97 251.46,-59.76"/>
</g>
</g>
</svg>
