<?xml version="1.0" encoding="UTF-8" standalone="no"?>
<!DOCTYPE svg PUBLIC "-//W3C//DTD SVG 1.1//EN"
 "http://www.w3.org/Graphics/SVG/1.1/DTD/svg11.dtd">
<!-- Generated by graphviz version 2.43.0 (0)
 -->
<!-- Title: EdgeListConceptHierarchy Pages: 1 -->
<svg width="486pt" height="168pt"
 viewBox="0.00 0.00 485.50 168.00" xmlns="http://www.w3.org/2000/svg" xmlns:xlink="http://www.w3.org/1999/xlink">
<g id="graph0" class="graph" transform="scale(1 1) rotate(0) translate(4 164)">
<title>EdgeListConceptHierarchy</title>
<polygon fill="white" stroke="transparent" points="-4,4 -4,-164 481.5,-164 481.5,4 -4,4"/>
<!-- basic_sourced_edgelist -->
<g id="node1" class="node">
<title>basic_sourced_edgelist</title>
<path fill="#cce5ff" stroke="black" d="M310.5,-160C310.5,-160 146.5,-160 146.5,-160 140.5,-160 134.5,-154 134.5,-148 134.5,-148 134.5,-104 134.5,-104 134.5,-98 140.5,-92 146.5,-92 146.5,-92 310.5,-92 310.5,-92 316.5,-92 322.5,-98 322.5,-104 322.5,-104 322.5,-148 322.5,-148 322.5,-154 316.5,-160 310.5,-160"/>
<text text-anchor="middle" x="228.5" y="-147.2" font-family="Helvetica,sans-Serif" font-size="11.00">basic_sourced_edgelist&lt;EL&gt;</text>
<text text-anchor="middle" x="228.5" y="-135.2" font-family="Helvetica,sans-Serif" font-size="11.00">input_range&lt;EL&gt;</text>
<text text-anchor="middle" x="228.5" y="-123.2" font-family="Helvetica,sans-Serif" font-size="11.00">¬range&#45;of&#45;ranges</text>
<text text-anchor="middle" x="228.5" y="-111.2" font-family="Helvetica,sans-Serif" font-size="11.00">source_id(e) → vertex_id_t&lt;G&gt;</text>
<text text-anchor="middle" x="228.5" y="-99.2" font-family="Helvetica,sans-Serif" font-size="11.00">target_id(e) → vertex_id_t&lt;G&gt;</text>
</g>
<!-- basic_sourced_index_edgelist -->
<g id="node2" class="node">
<title>basic_sourced_index_edgelist</title>
<path fill="#d4edda" stroke="black" d="M197,-56C197,-56 12,-56 12,-56 6,-56 0,-50 0,-44 0,-44 0,-12 0,-12 0,-6 6,0 12,0 12,0 197,0 197,0 203,0 209,-6 209,-12 209,-12 209,-44 209,-44 209,-50 203,-56 197,-56"/>
<text text-anchor="middle" x="104.5" y="-43.2" font-family="Helvetica,sans-Serif" font-size="11.00">basic_sourced_index_edgelist&lt;EL&gt;</text>
<text text-anchor="middle" x="104.5" y="-31.2" font-family="Helvetica,sans-Serif" font-size="11.00">basic_sourced_edgelist&lt;EL&gt;</text>
<text text-anchor="middle" x="104.5" y="-19.2" font-family="Helvetica,sans-Serif" font-size="11.00">∧ integral&lt;source_id_t&lt;EL&gt;&gt;</text>
<text text-anchor="middle" x="104.5" y="-7.2" font-family="Helvetica,sans-Serif" font-size="11.00">∧ integral&lt;target_id_t&lt;EL&gt;&gt;</text>
</g>
<!-- basic_sourced_edgelist&#45;&gt;basic_sourced_index_edgelist -->
<g id="edge1" class="edge">
<title>basic_sourced_edgelist&#45;&gt;basic_sourced_index_edgelist</title>
<path fill="none" stroke="black" d="M185.83,-91.96C173.41,-82.35 159.85,-71.85 147.42,-62.23"/>
<polygon fill="black" stroke="black" points="149.49,-59.41 139.44,-56.05 145.21,-64.94 149.49,-59.41"/>
</g>
<!-- has_edge_value -->
<g id="node3" class="node">
<title>has_edge_value</title>
<path fill="#d4edda" stroke="black" d="M465.5,-50C465.5,-50 239.5,-50 239.5,-50 233.5,-50 227.5,-44 227.5,-38 227.5,-38 227.5,-18 227.5,-18 227.5,-12 233.5,-6 239.5,-6 239.5,-6 465.5,-6 465.5,-6 471.5,-6 477.5,-12 477.5,-18 477.5,-18 477.5,-38 477.5,-38 477.5,-44 471.5,-50 465.5,-50"/>
<text text-anchor="middle" x="352.5" y="-37.2" font-family="Helvetica,sans-Serif" font-size="11.00">has_edge_value&lt;EL&gt;</text>
<text text-anchor="middle" x="352.5" y="-25.2" font-family="Helvetica,sans-Serif" font-size="11.00">basic_sourced_edgelist&lt;EL&gt;</text>
<text text-anchor="middle" x="352.5" y="-13.2" font-family="Helvetica,sans-Serif" font-size="11.00">∧ edge_value(el, uv) → edge_value_t&lt;EL&gt;</text>
</g>
<!-- basic_sourced_edgelist&#45;&gt;has_edge_value -->
<g id="edge2" class="edge">
<title>basic_sourced_edgelist&#45;&gt;has_edge_value</title>
<path fill="none" stroke="black" d="M271.17,-91.96C286.17,-80.36 302.83,-67.45 317.16,-56.36"/>
<polygon fill="black" stroke="black" points="319.52,-58.96 325.29,-50.07 315.24,-53.42 319.52,-58.96"/>
</g>
</g>
</svg>
