<?xml version="1.0" encoding="UTF-8" standalone="no"?>
<!DOCTYPE svg PUBLIC "-//W3C//DTD SVG 1.1//EN"
 "http://www.w3.org/Graphics/SVG/1.1/DTD/svg11.dtd">
<!-- Generated by graphviz version 2.43.0 (0)
 -->
<!-- Title: EdgeListConceptHierarchy Pages: 1 -->
<svg width="486pt" height="248pt"
 viewBox="0.00 0.00 485.50 248.00" xmlns="http://www.w3.org/2000/svg" xmlns:xlink="http://www.w3.org/1999/xlink">
<g id="graph0" class="graph" transform="scale(1 1) rotate(0) translate(4 244)">
<title>EdgeListConceptHierarchy</title>
<polygon fill="white" stroke="transparent" points="-4,4 -4,-244 481.5,-244 481.5,4 -4,4"/>
<!-- basic_edge -->
<g id="node1" class="node">
<title>basic_edge</title>
<path fill="#cce5ff" stroke="black" d="M282.5,-240C282.5,-240 174.5,-240 174.5,-240 168.5,-240 162.5,-234 162.5,-228 162.5,-228 162.5,-196 162.5,-196 162.5,-190 168.5,-184 174.5,-184 174.5,-184 282.5,-184 282.5,-184 288.5,-184 294.5,-190 294.5,-196 294.5,-196 294.5,-228 294.5,-228 294.5,-234 288.5,-240 282.5,-240"/>
<text text-anchor="middle" x="228.5" y="-227.2" font-family="Helvetica,sans-Serif" font-size="11.00">basic_edge&lt;EL,E&gt;</text>
<text text-anchor="middle" x="228.5" y="-215.2" font-family="Helvetica,sans-Serif" font-size="11.00">source_id(el, e)</text>
<text text-anchor="middle" x="228.5" y="-203.2" font-family="Helvetica,sans-Serif" font-size="11.00">target_id(el, e)</text>
<text text-anchor="middle" x="228.5" y="-191.2" font-family="Helvetica,sans-Serif" font-size="11.00">(shared with adj_list)</text>
</g>
<!-- basic_sourced_edgelist -->
<g id="node2" class="node">
<title>basic_sourced_edgelist</title>
<path fill="#cce5ff" stroke="black" d="M328,-148C328,-148 129,-148 129,-148 123,-148 117,-142 117,-136 117,-136 117,-104 117,-104 117,-98 123,-92 129,-92 129,-92 328,-92 328,-92 334,-92 340,-98 340,-104 340,-104 340,-136 340,-136 340,-142 334,-148 328,-148"/>
<text text-anchor="middle" x="228.5" y="-135.2" font-family="Helvetica,sans-Serif" font-size="11.00">basic_sourced_edgelist&lt;EL&gt;</text>
<text text-anchor="middle" x="228.5" y="-123.2" font-family="Helvetica,sans-Serif" font-size="11.00">input_range&lt;EL&gt;</text>
<text text-anchor="middle" x="228.5" y="-111.2" font-family="Helvetica,sans-Serif" font-size="11.00">¬range&#45;of&#45;ranges</text>
<text text-anchor="middle" x="228.5" y="-99.2" font-family="Helvetica,sans-Serif" font-size="11.00">basic_edge&lt;EL, range_value_t&lt;EL&gt;&gt;</text>
</g>
<!-- basic_edge&#45;&gt;basic_sourced_edgelist -->
<g id="edge1" class="edge">
<title>basic_edge&#45;&gt;basic_sourced_edgelist</title>
<path fill="none" stroke="black" d="M228.5,-184C228.5,-175.97 228.5,-167.03 228.5,-158.47"/>
<polygon fill="black" stroke="black" points="232,-158.29 228.5,-148.29 225,-158.3 232,-158.29"/>
</g>
<!-- basic_sourced_index_edgelist -->
<g id="node3" class="node">
<title>basic_sourced_index_edgelist</title>
<path fill="#d4edda" stroke="black" d="M197,-56C197,-56 12,-56 12,-56 6,-56 0,-50 0,-44 0,-44 0,-12 0,-12 0,-6 6,0 12,0 12,0 197,0 197,0 203,0 209,-6 209,-12 209,-12 209,-44 209,-44 209,-50 203,-56 197,-56"/>
<text text-anchor="middle" x="104.5" y="-43.2" font-family="Helvetica,sans-Serif" font-size="11.00">basic_sourced_index_edgelist&lt;EL&gt;</text>
<text text-anchor="middle" x="104.5" y="-31.2" font-family="Helvetica,sans-Serif" font-size="11.00">basic_sourced_edgelist&lt;EL&gt;</text>
<text text-anchor="middle" x="104.5" y="-19.2" font-family="Helvetica,sans-Serif" font-size="11.00">∧ integral&lt;source_id_t&lt;EL&gt;&gt;</text>
<text text-anchor="middle" x="104.5" y="-7.2" font-family="Helvetica,sans-Serif" font-size="11.00">∧ integral&lt;target_id_t&lt;EL&gt;&gt;</text>
</g>
<!-- basic_sourced_edgelist&#45;&gt;basic_sourced_index_edgelist -->
<g id="edge2" class="edge">
<title>basic_sourced_edgelist&#45;&gt;basic_sourced_index_edgelist</title>
<path fill="none" stroke="black" d="M191.3,-92C178.42,-82.65 163.83,-72.06 150.34,-62.27"/>
<polygon fill="black" stroke="black" points="152.26,-59.34 142.11,-56.29 148.14,-65 152.26,-59.34"/>
</g>
<!-- has_edge_value -->
<g id="node4" class="node">
<title>has_edge_value</title>
<path fill="#d4edda" stroke="black" d="M465.5,-50C465.5,-50 239.5,-50 239.5,-50 233.5,-50 227.5,-44 227.5,-38 227.5,-38 227.5,-18 227.5,-18 227.5,-12 233.5,-6 239.5,-6 239.5,-6 465.5,-6 465.5,-6 471.5,-6 477.5,-12 477.5,-18 477.5,-18 477.5,-38 477.5,-38 477.5,-44 471.5,-50 465.5,-50"/>
<text text-anchor="middle" x="352.5" y="-37.2" font-family="Helvetica,sans-Serif" font-size="11.00">has_edge_value&lt;EL&gt;</text>
<text text-anchor="middle" x="352.5" y="-25.2" font-family="Helvetica,sans-Serif" font-size="11.00">basic_sourced_edgelist&lt;EL&gt;</text>
<text text-anchor="middle" x="352.5" y="-13.2" font-family="Helvetica,sans-Serif" font-size="11.00">∧ edge_value(el, uv) → edge_value_t&lt;EL&gt;</text>
</g>
<!-- basic_sourced_edgelist&#45;&gt;has_edge_value -->
<g id="edge3" class="edge">
<title>basic_sourced_edgelist&#45;&gt;has_edge_value</title>
<path fill="none" stroke="black" d="M265.7,-92C281.23,-80.73 299.25,-67.65 314.83,-56.34"/>
<polygon fill="black" stroke="black" points="317.16,-58.97 323.2,-50.27 313.05,-53.31 317.16,-58.97"/>
</g>
</g>
</svg>
